<?xml version="1.0" encoding="UTF-8"?>
<svg id="Ebene_2" data-name="Ebene 2" xmlns="http://www.w3.org/2000/svg" xmlns:xlink="http://www.w3.org/1999/xlink" viewBox="0 0 703.88 702.47">
  <defs>
    <style>
      .cls-1 {
        fill: #000;
      }

      .cls-1, .cls-2, .cls-3, .cls-4, .cls-5, .cls-6, .cls-7, .cls-8, .cls-9 {
        stroke-width: 0px;
      }

      .cls-10 {
        fill: #fff;
      }

      .cls-10, .cls-11, .cls-12, .cls-13, .cls-14 {
        stroke: #000;
        stroke-miterlimit: 10;
      }

      .cls-2 {
        fill: url(#Unbenannter_Verlauf_7-3);
      }

      .cls-3 {
        fill: url(#Unbenannter_Verlauf_8);
      }

      .cls-11 {
        fill: url(#Unbenannter_Verlauf_18-2);
      }

      .cls-4 {
        fill: url(#Unbenannter_Verlauf_20-2);
      }

      .cls-5 {
        fill: url(#Unbenannter_Verlauf_13);
      }

      .cls-6 {
        fill: url(#Unbenannter_Verlauf_20);
      }

      .cls-7 {
        fill: url(#Unbenannter_Verlauf_14);
      }

      .cls-12 {
        fill: url(#Unbenannter_Verlauf_18);
      }

      .cls-8 {
        fill: url(#Unbenannter_Verlauf_7-2);
      }

      .cls-13 {
        fill: url(#Unbenannter_Verlauf_15);
      }

      .cls-9 {
        fill: url(#Unbenannter_Verlauf_7);
      }

      .cls-14 {
        fill: none;
        stroke-width: 3px;
      }
    </style>
    <linearGradient id="Unbenannter_Verlauf_20" data-name="Unbenannter Verlauf 20" x1="2.37" y1="325.93" x2="372.51" y2="325.93" gradientUnits="userSpaceOnUse">
      <stop offset="0" stop-color="#520200"/>
      <stop offset=".67" stop-color="#b61100"/>
    </linearGradient>
    <linearGradient id="Unbenannter_Verlauf_18" data-name="Unbenannter Verlauf 18" x1="290.99" y1="115.71" x2="311.35" y2="115.71" gradientUnits="userSpaceOnUse">
      <stop offset="0" stop-color="#520200"/>
      <stop offset=".03" stop-color="#6d0600"/>
      <stop offset=".06" stop-color="#870a00"/>
      <stop offset=".1" stop-color="#9c0d00"/>
      <stop offset=".14" stop-color="#aa0f00"/>
      <stop offset=".18" stop-color="#b31000"/>
      <stop offset=".26" stop-color="#b61100"/>
    </linearGradient>
    <linearGradient id="Unbenannter_Verlauf_18-2" data-name="Unbenannter Verlauf 18" x1="321.92" y1="99.76" x2="334.16" y2="99.76" xlink:href="#Unbenannter_Verlauf_18"/>
    <linearGradient id="Unbenannter_Verlauf_20-2" data-name="Unbenannter Verlauf 20" x1="81.71" y1="320.37" x2="128.83" y2="320.37" xlink:href="#Unbenannter_Verlauf_20"/>
    <linearGradient id="Unbenannter_Verlauf_8" data-name="Unbenannter Verlauf 8" x1="133.19" y1="299.11" x2="157.05" y2="299.11" gradientUnits="userSpaceOnUse">
      <stop offset="0" stop-color="#520200"/>
      <stop offset=".01" stop-color="#600400"/>
      <stop offset=".05" stop-color="#7a0800"/>
      <stop offset=".09" stop-color="#900b00"/>
      <stop offset=".13" stop-color="#a10d00"/>
      <stop offset=".19" stop-color="#ad0f00"/>
      <stop offset=".26" stop-color="#b41000"/>
      <stop offset=".48" stop-color="#b61100"/>
    </linearGradient>
    <linearGradient id="Unbenannter_Verlauf_13" data-name="Unbenannter Verlauf 13" x1="138.48" y1="339.01" x2="149.97" y2="339.01" gradientUnits="userSpaceOnUse">
      <stop offset="0" stop-color="#520200"/>
      <stop offset="0" stop-color="#560200"/>
      <stop offset=".05" stop-color="#730700"/>
      <stop offset=".1" stop-color="#8c0a00"/>
      <stop offset=".16" stop-color="#9e0d00"/>
      <stop offset=".23" stop-color="#ac0f00"/>
      <stop offset=".32" stop-color="#b31000"/>
      <stop offset=".49" stop-color="#b61100"/>
    </linearGradient>
    <linearGradient id="Unbenannter_Verlauf_14" data-name="Unbenannter Verlauf 14" x1="179.27" y1="383.83" x2="202.45" y2="383.83" gradientUnits="userSpaceOnUse">
      <stop offset="0" stop-color="#520200"/>
      <stop offset=".02" stop-color="#600400"/>
      <stop offset=".07" stop-color="#7a0800"/>
      <stop offset=".12" stop-color="#900b00"/>
      <stop offset=".18" stop-color="#a10d00"/>
      <stop offset=".26" stop-color="#ad0f00"/>
      <stop offset=".37" stop-color="#b41000"/>
      <stop offset=".67" stop-color="#b61100"/>
    </linearGradient>
    <linearGradient id="Unbenannter_Verlauf_7" data-name="Unbenannter Verlauf 7" x1="315.3" y1="165.7" x2="697.44" y2="165.7" gradientUnits="userSpaceOnUse">
      <stop offset="0" stop-color="#b61100"/>
      <stop offset=".15" stop-color="#af0f00"/>
      <stop offset=".37" stop-color="#9c0d00"/>
      <stop offset=".63" stop-color="#7d0800"/>
      <stop offset=".92" stop-color="#520100"/>
      <stop offset="1" stop-color="#460000"/>
    </linearGradient>
    <linearGradient id="Unbenannter_Verlauf_7-2" data-name="Unbenannter Verlauf 7" x1="310.56" y1="404.88" x2="612.34" y2="404.88" xlink:href="#Unbenannter_Verlauf_7"/>
    <linearGradient id="Unbenannter_Verlauf_7-3" data-name="Unbenannter Verlauf 7" x1="561.68" y1="481.65" x2="586.18" y2="481.65" xlink:href="#Unbenannter_Verlauf_7"/>
    <linearGradient id="Unbenannter_Verlauf_15" data-name="Unbenannter Verlauf 15" x1="363.24" y1="85.91" x2="376.97" y2="85.91" gradientUnits="userSpaceOnUse">
      <stop offset="0" stop-color="#520200"/>
      <stop offset="0" stop-color="#600400"/>
      <stop offset=".03" stop-color="#7a0800"/>
      <stop offset=".05" stop-color="#900b00"/>
      <stop offset=".07" stop-color="#a10d00"/>
      <stop offset=".1" stop-color="#ad0f00"/>
      <stop offset=".14" stop-color="#b41000"/>
      <stop offset=".25" stop-color="#b61100"/>
    </linearGradient>
  </defs>
  <g id="earth">
    <g>
      <circle class="cls-10" cx="351.53" cy="350.94" r="350.44"/>
      <g>
        <path class="cls-6" d="M295.69,650.21c-.07,0-.15,0-.22-.02l-14.31-2.86-18.11-5.03c-6.21-1.72-12.2-4.22-17.8-7.42l-12.95-7.39-40.16-20.81c-.78-.41-1.55-.87-2.27-1.37l-.63-.44c-8.95-6.26-16.56-14.04-22.63-23.13l-.09-.13-.79-.3c-7.66-2.87-14.81-6.87-21.27-11.89-2.54-1.98-4.54-4.59-5.78-7.57l-3.03-7.26c-1.8-4.31-4.1-8.41-6.85-12.19l-8.15-11.19-7.23-8.26c-1.68-1.92-2.97-4.08-3.91-5.76-1.85-3.31-9.85-10.21-42.56-19.27-4.67-1.3-8.33-5-9.55-9.66l-7.12-27.27c-2.95-7.88-9.6-13.53-17.8-15.17-1.33-.27-2.39-1.28-2.72-2.59l-2.43-9.72v-6.8c0-6.29,2.45-12.21,6.9-16.66l6.44-6.43c2.26-2.26,3.5-5.26,3.5-8.45,0-2.92-1.59-5.6-4.16-7l-9.92-5.41c-1.96-1.07-3.67-2.47-5.1-4.18l-1.3-1.56c-2.6-3.12-4.03-7.07-4.03-11.13v-10.36c0-5.05-1.78-9.97-5.02-13.85l-2.76-3.31-5.78-8.68c-.2-.3-.39-.61-.58-.92l-3.17-5.41c.34-4.02,7.63-82.92,54.9-160.83,28.34-46.71,65.3-83.93,109.86-110.61C222.82,18.57,290.62,1.65,368.63,1.65c1.3,0,2.58,0,3.88.01l-12.36,23.58c-1.99,3.79-2.71,8.03-2.11,12.26.4,2.78.04,5.61-1.04,8.2l-3.91,9.34c-1.3,3.11-3.49,5.69-6.35,7.48l-24.21,15.15c-5.19,3.25-8.29,8.84-8.29,14.96,0,.51-.25.98-.67,1.27l-51.66,35.53c-.41.28-.89.43-1.39.43-.18,0-.36-.02-.53-.06-2.49-.55-4.46-2.33-5.27-4.75-.81-2.42-.3-5.02,1.37-6.96l3.81-4.45c4.15-4.84,7.53-10.27,10.05-16.13l2.59-6.05c1.82-4.24,4.81-7.83,8.64-10.38l12.51-8.33,1.24-2.8c1.16-2.61.92-5.59-.63-7.99-1.56-2.39-4.19-3.82-7.04-3.82h-29.03c-4.07,0-7.73,2.26-9.55,5.9l-6.38,12.74-9.14,21.3-19.86,12.21-2.67,3.55c-.25.33-.63.53-1.04.53-.56,0-1.04-.33-1.23-.85l-1.31-3.49c-1.39-3.7-2.09-7.58-2.09-11.53v-4.59l-.14-.15c-6.37-6.52-15.26-10.26-24.38-10.26-1.87,0-3.75.16-5.6.46-.83.14-1.58.61-2.06,1.3l-10.09,14.4-2.33,3.27c-3.49,4.88-7.87,8.92-13.02,12.01l-17.44,10.46c-3.45,2.07-5.59,5.84-5.59,9.86,0,1.8-.16,3.62-.46,5.4l-.68,3.98c-1.08,6.25,2.51,12.25,8.53,14.25.74.25,1.51.37,2.29.37,1.74,0,3.43-.63,4.74-1.77,2.73-2.37,6.65-5.8,8.43-7.35.68-.6,1.22-1.32,1.6-2.15l7.11-15.62.62-.73c3.47-4.04,8.51-6.36,13.83-6.36,2.06,0,4.08.35,6.02,1.03l-1.11,9.97c-.26,2.33.37,4.64,1.78,6.51l.22.29c1.1,1.47,2.86,2.34,4.69,2.34.63,0,1.25-.1,1.85-.3l7.91-2.63c1.06-.35,2.17-.53,3.28-.53.34,0,.69.02,1.03.05l5.05.5c4.37.44,7.83,3.93,8.23,8.3l.81,8.87-1.52,15.14-6.08,15.18-10.74,15.33-3.1,12.39v.06c0,1.46-1.14,2.68-2.59,2.8l-17.03,1.31-11.58,10.42c-2.52,2.27-5.36,4.15-8.44,5.58l-13.71,6.39c-3.04,1.42-5.51,3.87-6.95,6.91l-11.71,24.7,2.61,9.13c.29,1.02.19,2.1-.28,3.04l-.57,1.15c-.94,1.88-2.84,3.06-4.95,3.06-1.72,0-3.26-1.03-3.92-2.61l-1.94-4.64c-.41-.97-.53-2.04-.35-3.08l.63-3.79c.42-2.5.04-5.02-1.1-7.28-.95-1.9-2.86-3.09-4.98-3.1l-5.36-.04c-3.48,0-6.64,1.69-8.54,4.53l-.08.12c-1.37,2.06-3.66,3.29-6.12,3.29-.72,0-1.44-.11-2.14-.32-4.36-1.33-9.71-2.94-9.71-2.94l-.15-.05-8.48,2.83c-3.64,1.21-7.22,2.7-10.65,4.41l-3.36,1.68c-2.53,1.26-4.7,3.18-6.27,5.53l-6.79,10.17-7.29,3.64c-3.24,1.62-5.66,4.41-6.81,7.85l-1.35,4.04-1.55,7.71-1.26,7.53c-.2,1.19.56,2.36,1.74,2.65.64.16,1.31.24,1.97.24,2.32,0,4.53-.99,6.08-2.73l7.38-8.3c1.05-1.18,2.56-1.86,4.14-1.86,1.85,0,3.48,1.25,3.95,3.04.41,1.55.49,2.26.49,2.58-.06.44-1.78,2.31-7.84,6.53-.74.51-1.4,1.14-1.95,1.87l-.91,1.19c-1.93,2.52-2.12,5.91-.49,8.63l.51.85c1.08,1.8,2.79,3.07,4.83,3.58l6.17,1.54c1.85.46,3.39,1.7,4.25,3.41.89,1.79.65,3.93-.63,5.46l-5.38,6.46-.03.05c-.32.64-3.12,6.27-3.12,7.88,0,.41,0,1.18,7.15,7.92,4.34,4.09,10.04,6.35,16.03,6.35h7.36l31.44-10.76,1.52-1.01c2.21-1.47,4.79-2.25,7.45-2.25s5.23.78,7.45,2.25l1.42.95c2.39,2.44,5.72,3.83,9.13,3.83.7,0,1.41-.06,2.1-.17l.14-.02c.4-.07.8-.1,1.2-.1,1.31,0,2.6.37,3.71,1.06l1.55.96c2.2,1.37,4.73,2.09,7.32,2.09,3.33,0,6.55-1.2,9.07-3.37.64-.55,1.45-.85,2.29-.85,1.08,0,2.09.49,2.75,1.35l8.21,10.54,18.18,9.78c1.1.59,1.98,1.5,2.54,2.61,1.44,2.87,3.89,5.05,6.9,6.15l9.3,3.38c.62.22,1.09.71,1.31,1.32s.15,1.29-.19,1.85l-3.09,5.14,3.51,4.92c2.84,3.97,7.26,6.47,12.13,6.84l7.54.58c2.82.22,5.37,1.79,6.82,4.22,2.64,4.41,6.74,10.37,11.3,13.69,2.89,2.1,4.46,5.42,4.19,8.87l-.99,12.86,1.07,14.99c.3,4.17-.47,8.38-2.23,12.18l-5.86,12.68c-.38.82-.86,1.58-1.44,2.28l-4.29,5.15c-1.66,1.99-2.74,4.41-3.11,6.98l-.97,6.78-5.22,6.25c-1.59,1.9-2.28,4.4-1.9,6.84l2.5,16.27,1.52,15.22-.65,5.85c-.58,5.21.91,10.33,4.18,14.42.61.76,1.52,1.2,2.5,1.2.34,0,.68-.06,1.01-.16l2.92-.97,3.15-3.14c1.13-1.13,2.64-1.76,4.24-1.76s3.06.6,4.18,1.7l1.55,3.09c3.01,6.02,5.54,12.33,7.52,18.76,2.05,6.65,6.56,12.09,12.71,15.33,5.39,2.84,11.88,6.26,15.91,8.38,2.58,1.36,5.34,2.37,8.2,3l4.64,1.03c.91.2,1.65.85,1.98,1.73.32.88.18,1.85-.38,2.59l-.97,1.29c-.21.28-.54.45-.9.45Z"/>
        <path class="cls-1" d="M368.66,1.15v1c1.02,0,2.02,0,3.03,0l-11.98,22.85c-2.03,3.88-2.78,8.22-2.16,12.56.38,2.69.04,5.44-1.01,7.94l-3.91,9.34c-1.26,3.01-3.39,5.52-6.16,7.25l-24.21,15.15c-5.33,3.34-8.52,9.09-8.52,15.38,0,.34-.17.66-.45.86l-51.66,35.53c-.33.23-.71.34-1.11.34-.14,0-.28-.02-.42-.05-2.32-.51-4.15-2.17-4.9-4.42-.75-2.25-.28-4.67,1.27-6.48l3.81-4.45c4.19-4.88,7.59-10.35,10.13-16.26l2.59-6.05c1.78-4.15,4.7-7.66,8.46-10.16l12.39-8.25.24-.16.12-.26,1.19-2.67c1.23-2.76.98-5.93-.67-8.46-1.65-2.54-4.44-4.05-7.46-4.05h-29.03c-4.26,0-8.09,2.37-9.99,6.17l-6.38,12.74v.03s-.02.03-.02.03l-9.06,21.13-19.64,12.08-.16.1-.11.15-2.61,3.48c-.21.28-.5.33-.65.33-.27,0-.62-.14-.77-.53l-1.31-3.49c-1.37-3.64-2.06-7.46-2.06-11.35v-4.79l-.28-.29c-6.47-6.61-15.48-10.41-24.73-10.41-1.9,0-3.81.16-5.68.47-.96.16-1.83.71-2.38,1.5l-10.08,14.39-2.34,3.27c-3.45,4.83-7.78,8.82-12.87,11.87l-17.44,10.46c-3.6,2.16-5.83,6.1-5.83,10.29,0,1.78-.15,3.56-.45,5.31l-.68,3.98c-1.12,6.5,2.61,12.73,8.87,14.81.79.26,1.62.4,2.45.4,1.86,0,3.66-.67,5.07-1.9,2.73-2.37,6.65-5.8,8.43-7.36.74-.64,1.32-1.42,1.72-2.32l7.08-15.56.58-.67c3.37-3.93,8.27-6.18,13.45-6.18,1.87,0,3.71.29,5.48.87l-1.06,9.57c-.27,2.45.39,4.89,1.87,6.86l.22.29c1.2,1.59,3.1,2.54,5.09,2.54.68,0,1.36-.11,2.01-.33l7.91-2.63c1.01-.34,2.06-.51,3.12-.51.33,0,.66.02.98.05l5.05.5c4.13.41,7.41,3.71,7.78,7.85l.8,8.78-1.51,15.07-6.03,15.06-10.65,15.21-.11.15-.04.18-3.06,12.24-.03.12v.12c0,1.2-.93,2.21-2.13,2.3l-16.86,1.3-.34.03-.25.23-11.46,10.3c-2.49,2.24-5.29,4.09-8.32,5.5l-13.71,6.39c-3.15,1.47-5.7,4.01-7.19,7.15l-11.63,24.53-.16.34.1.36,2.56,8.95c.26.9.17,1.85-.25,2.68l-.57,1.15c-.86,1.71-2.58,2.78-4.5,2.78-1.52,0-2.88-.91-3.46-2.31l-1.93-4.64c-.37-.89-.48-1.85-.32-2.8l.63-3.79c.43-2.6.04-5.23-1.14-7.59-1.03-2.07-3.11-3.36-5.42-3.38l-5.36-.04h-.08c-3.57,0-6.89,1.77-8.88,4.75l-.08.12c-1.28,1.92-3.41,3.07-5.7,3.07-.67,0-1.34-.1-1.99-.3-4.36-1.34-9.72-2.94-9.72-2.94l-.3-.09-.3.1-8.33,2.78c-3.66,1.22-7.27,2.71-10.72,4.44l-3.36,1.68c-2.61,1.3-4.85,3.28-6.46,5.7l-6.71,10.06-7.17,3.58c-3.36,1.68-5.87,4.57-7.06,8.14l-1.35,4.04-.02.06v.06s-1.55,7.68-1.55,7.68l-1.25,7.51c-.24,1.45.69,2.86,2.11,3.22.68.17,1.39.26,2.09.26,2.46,0,4.81-1.06,6.45-2.89l7.38-8.3c.96-1.07,2.33-1.69,3.77-1.69,1.63,0,3.05,1.1,3.47,2.67.37,1.4.46,2.06.48,2.36-.35.69-2.84,2.88-7.62,6.21-.78.54-1.48,1.21-2.07,1.98l-.91,1.19c-2.06,2.68-2.26,6.29-.52,9.19l.51.85c1.15,1.91,2.97,3.26,5.14,3.81l6.17,1.54c1.7.43,3.13,1.57,3.92,3.14.8,1.61.58,3.54-.57,4.92l-5.35,6.41-.07.09-.05.1c-.74,1.49-3.17,6.46-3.17,8.1,0,.59,0,1.4,7.31,8.29,4.44,4.18,10.25,6.49,16.38,6.49h7.44l.16-.05,31.3-10.71.12-.04.11-.07,1.47-.98c2.13-1.42,4.61-2.17,7.17-2.17s5.04.75,7.17,2.17l1.38.92c2.48,2.51,5.92,3.94,9.45,3.94.73,0,1.46-.06,2.18-.18l.14-.02c.37-.06.74-.09,1.11-.09,1.22,0,2.41.34,3.45.98l1.55.96c2.28,1.42,4.9,2.17,7.59,2.17,3.45,0,6.79-1.24,9.4-3.5.55-.47,1.24-.73,1.96-.73.93,0,1.79.42,2.36,1.15l8.14,10.46.13.17.19.1,18.09,9.73c1.01.54,1.81,1.37,2.33,2.4,1.49,2.98,4.04,5.26,7.18,6.4l9.3,3.38c.47.17.84.54,1.01,1.02.17.48.12,1-.14,1.43l-2.92,4.86-.34.56.38.53,3.32,4.65c2.93,4.09,7.48,6.66,12.5,7.05l7.54.58c2.66.2,5.06,1.69,6.43,3.97,2.66,4.45,6.81,10.46,11.44,13.83,2.75,2,4.24,5.15,3.98,8.43l-.99,12.86v.07s0,.07,0,.07l1.07,14.92c.29,4.09-.46,8.22-2.18,11.94l-5.86,12.68c-.36.78-.82,1.51-1.37,2.17l-4.29,5.15c-1.72,2.07-2.84,4.57-3.22,7.23l-.95,6.64-5.13,6.15c-1.68,2.01-2.41,4.65-2.01,7.24l2.5,16.24,1.52,15.17-.64,5.8c-.59,5.34.93,10.59,4.29,14.79.71.88,1.76,1.39,2.89,1.39.4,0,.79-.06,1.17-.19l2.81-.93.22-.07.17-.17,3.06-3.06c1.04-1.04,2.42-1.61,3.89-1.61s2.75.53,3.78,1.5l1.51,3.02c3,5.99,5.52,12.28,7.49,18.69,2.09,6.77,6.69,12.32,12.96,15.63,5.39,2.84,11.88,6.26,15.91,8.38,2.62,1.38,5.42,2.41,8.32,3.05l4.64,1.03c.76.17,1.35.68,1.62,1.41.27.73.16,1.5-.31,2.12l-.97,1.29c-.12.16-.3.25-.5.25-.04,0-.08,0-.12-.01l-14.28-2.85-18.11-5.03c-6.17-1.71-12.12-4.19-17.69-7.37l-12.98-7.41-40.14-20.8c-.76-.4-1.51-.85-2.21-1.34l-.63-.44c-8.9-6.23-16.47-13.96-22.5-23l-.18-.27-.3-.11-.64-.24c-7.61-2.85-14.72-6.83-21.14-11.81-2.48-1.92-4.42-4.47-5.63-7.36l-3.03-7.26c-1.81-4.35-4.14-8.48-6.91-12.29l-8.15-11.19-.03-.04-.03-.03-7.21-8.23c-1.65-1.89-2.92-4.02-3.85-5.67-1.89-3.37-9.97-10.39-42.86-19.51-4.5-1.25-8.03-4.81-9.2-9.3l-7.12-27.27v-.05s-.03-.05-.03-.05c-3-7.99-9.79-13.76-18.16-15.43-1.14-.23-2.05-1.1-2.34-2.23l-2.42-9.66v-6.74c0-6.16,2.4-11.95,6.76-16.31l2.14-2.14,4.3-4.3c2.35-2.35,3.65-5.48,3.65-8.8,0-3.1-1.69-5.96-4.42-7.44l-9.92-5.41c-1.9-1.04-3.57-2.4-4.95-4.07l-1.3-1.56c-2.53-3.03-3.92-6.87-3.92-10.81v-10.36c0-5.17-1.82-10.2-5.13-14.17l-2.72-3.26-5.79-8.67c-.19-.29-.38-.59-.56-.89l-3.09-5.27c.23-2.65,2.09-22.14,9.11-49.96,6.95-27.5,20.52-69,45.72-110.52,28.3-46.63,65.21-83.78,109.69-110.42C223.01,19.05,290.72,2.16,368.63,2.15l.03-1M368.63,1.15C26.16,1.18,1.85,323.49,1.85,323.49l3.25,5.55c.19.32.38.63.59.94l5.82,8.72,2.76,3.31c3.17,3.8,4.9,8.58,4.9,13.53v10.36c0,4.18,1.47,8.24,4.15,11.45l1.3,1.56c1.46,1.75,3.24,3.21,5.24,4.3l9.92,5.41c2.4,1.31,3.9,3.83,3.9,6.56,0,3.04-1.21,5.95-3.36,8.1l-4.3,4.3-2.14,2.14c-4.51,4.51-7.05,10.63-7.05,17.01v6.86l2.45,9.78c.38,1.51,1.59,2.66,3.11,2.96,7.97,1.59,14.56,7.19,17.42,14.8,0,0,4.41,16.89,7.12,27.27,1.27,4.87,5.05,8.67,9.9,10.01,32.84,9.1,40.52,15.94,42.25,19.04,1.16,2.06,2.41,4.06,3.97,5.84l7.21,8.23,8.15,11.19c2.73,3.75,5.01,7.8,6.79,12.08l3.03,7.26c1.28,3.06,3.32,5.73,5.94,7.77,6.49,5.04,13.71,9.08,21.41,11.96l.64.24c6.07,9.1,13.79,16.99,22.76,23.26l.63.44c.74.52,1.52.99,2.32,1.41l40.14,20.8,12.95,7.39c5.64,3.22,11.66,5.73,17.92,7.46l18.14,5.04,14.31,2.86c.11.02.21.03.32.03.5,0,.99-.24,1.3-.65l.97-1.29c1.41-1.88.41-4.6-1.89-5.11l-4.64-1.03c-2.81-.62-5.52-1.62-8.07-2.96-4.03-2.12-10.52-5.53-15.91-8.38-5.99-3.16-10.48-8.57-12.47-15.04h0c-1.99-6.48-4.52-12.78-7.55-18.84l-1.58-3.17h0c-1.27-1.27-2.93-1.9-4.59-1.9s-3.33.63-4.59,1.9l-3.06,3.06-2.81.93c-.28.09-.57.14-.85.14-.81,0-1.59-.36-2.11-1.01h0c-3.17-3.96-4.63-9.01-4.07-14.05l.66-5.9-1.53-15.3-2.5-16.27c-.36-2.31.3-4.65,1.79-6.45l5.31-6.36.99-6.92c.35-2.48,1.39-4.81,2.99-6.73l4.29-5.15c.61-.73,1.11-1.53,1.51-2.39l5.86-12.68c1.79-3.88,2.58-8.16,2.27-12.43l-1.07-14.92.99-12.86c.28-3.66-1.42-7.15-4.39-9.32-4.59-3.34-8.73-9.46-11.17-13.54-1.54-2.57-4.22-4.23-7.21-4.46l-7.54-.58c-4.71-.36-9.02-2.79-11.77-6.63l-3.32-4.65,2.92-4.86c.87-1.45.2-3.33-1.38-3.9l-9.3-3.38c-2.88-1.05-5.25-3.16-6.63-5.9-.6-1.2-1.56-2.19-2.75-2.83l-18.09-9.73s-4.97-6.38-8.14-10.46c-.79-1.01-1.96-1.54-3.15-1.54-.92,0-1.86.32-2.61.98h0c-2.49,2.15-5.61,3.25-8.74,3.25-2.44,0-4.89-.66-7.06-2.02-.55-.34-1.07-.67-1.55-.96-1.2-.75-2.57-1.13-3.97-1.13-.42,0-.85.04-1.28.11l-.14.02c-.67.11-1.35.17-2.02.17-3.29,0-6.48-1.32-8.81-3.72l-1.47-.98c-2.34-1.56-5.03-2.34-7.72-2.34s-5.38.78-7.72,2.34l-1.47.98-31.3,10.71h-7.27c-5.83,0-11.45-2.21-15.69-6.21-3.48-3.28-7-6.79-7-7.56,0-1.53,3.06-7.65,3.06-7.65,0,0,3.09-3.71,5.35-6.41,1.41-1.69,1.68-4.04.69-6-.92-1.83-2.59-3.17-4.57-3.67l-6.17-1.54c-1.89-.47-3.52-1.68-4.52-3.35l-.51-.85c-1.52-2.53-1.34-5.73.46-8.07l.91-1.19c.52-.68,1.14-1.27,1.84-1.76,2.39-1.66,8.06-5.73,8.06-6.94,0-.59-.23-1.64-.51-2.71-.53-2.01-2.35-3.41-4.44-3.41-1.72,0-3.37.74-4.51,2.03l-7.38,8.3c-1.47,1.65-3.55,2.56-5.7,2.56-.62,0-1.24-.07-1.85-.23-.93-.23-1.52-1.14-1.37-2.08l1.25-7.51,1.53-7.65,1.35-4.04c1.1-3.29,3.46-6.01,6.56-7.56l7.41-3.7,6.86-10.28c1.53-2.29,3.62-4.13,6.08-5.36l3.36-1.68c3.42-1.71,6.96-3.17,10.59-4.38l8.33-2.78s5.35,1.6,9.71,2.94c.76.23,1.52.34,2.29.34,2.57,0,5.04-1.27,6.53-3.51l.08-.12c1.8-2.69,4.81-4.3,8.05-4.3.02,0,.05,0,.07,0l5.36.04c1.92.01,3.68,1.11,4.54,2.82,1.08,2.16,1.45,4.6,1.05,6.98l-.63,3.79c-.19,1.13-.05,2.29.39,3.35l1.93,4.64c.74,1.77,2.47,2.92,4.38,2.92,2.28,0,4.37-1.29,5.39-3.33l.57-1.15c.53-1.06.64-2.27.32-3.41l-2.56-8.95,11.63-24.53c1.39-2.94,3.77-5.29,6.71-6.67l13.71-6.39c3.12-1.45,6.01-3.36,8.56-5.66l11.46-10.3,16.86-1.3c1.72-.13,3.05-1.57,3.05-3.3l3.06-12.24,10.72-15.3,6.13-15.3,1.53-15.3-.81-8.87c-.42-4.62-4.06-8.29-8.68-8.76l-5.05-.5c-.36-.04-.72-.05-1.08-.05-1.17,0-2.33.19-3.44.56l-7.91,2.63c-.56.19-1.13.28-1.69.28-1.66,0-3.26-.77-4.29-2.14l-.22-.29c-1.32-1.76-1.92-3.96-1.68-6.15l1.15-10.36c-2.14-.8-4.36-1.19-6.56-1.19-5.36,0-10.58,2.3-14.21,6.53l-.67.78-7.14,15.68c-.34.76-.85,1.43-1.47,1.98-1.78,1.56-5.7,4.98-8.43,7.35-1.24,1.08-2.81,1.65-4.41,1.65-.72,0-1.44-.11-2.14-.35-5.74-1.91-9.22-7.73-8.2-13.69l.68-3.98c.31-1.81.47-3.64.47-5.48,0-3.87,2.03-7.45,5.34-9.43l17.44-10.46c5.17-3.1,9.66-7.24,13.16-12.14l2.34-3.27,10.09-14.4c.41-.58,1.03-.97,1.73-1.09,1.84-.31,3.69-.46,5.52-.46,8.96,0,17.65,3.59,24.02,10.11v4.38c0,4,.72,7.96,2.12,11.7l1.31,3.49c.29.76.99,1.18,1.7,1.18.54,0,1.08-.23,1.44-.73l2.61-3.48,19.91-12.24,9.19-21.42,6.38-12.74c1.72-3.45,5.25-5.62,9.1-5.62h29.03c5.72,0,9.54,5.88,7.22,11.11l-1.19,2.67-12.39,8.25c-3.91,2.6-6.97,6.29-8.82,10.6l-2.59,6.05c-2.49,5.81-5.85,11.2-9.97,16l-3.81,4.45c-3.78,4.41-1.5,11.26,4.17,12.52.21.05.43.07.64.07.59,0,1.18-.18,1.68-.52l51.66-35.53c.55-.38.88-1.01.88-1.68,0-5.91,3.04-11.4,8.05-14.53l24.21-15.15c2.93-1.83,5.22-4.52,6.55-7.71,1.22-2.92,2.75-6.58,3.91-9.34,1.12-2.68,1.49-5.6,1.08-8.47h0c-.59-4.1.13-8.29,2.06-11.96l12.74-24.3c-1.59-.01-3.13-.02-4.7-.02h0Z"/>
      </g>
      <path class="cls-12" d="M306.03,109.88l-5.69.71c-3.69.46-6.86,2.85-8.33,6.27l-.85,1.99c-.6,1.4.56,2.93,2.08,2.71l4.09-.58c.58-.08,1.13-.29,1.62-.61l11.97-7.84c.7-.46.52-1.52-.29-1.72l-3.43-.86c-.38-.1-.77-.12-1.16-.07Z"/>
      <path class="cls-11" d="M328.04,88.38l-2.8-.7c-1.69-.42-3.33.86-3.33,2.6v12.21c0,.71,1.62,4.78,2.94,7.97.71,1.72,3.04,1.99,4.13.47l3.52-4.93c1.08-1.51,1.66-3.32,1.66-5.18v-3.11c0-2.99-1.41-5.8-3.8-7.59l-2.33-1.74Z"/>
      <g>
        <path class="cls-4" d="M118.26,346.61c-10.1,0-15.67-1.4-15.67-3.93v-.17l-3.12-4.07c-.47-1.16-3.61-8.82-5.02-10.24-.96-.96-2.19-2.83-3.63-4.99-1.52-2.3-3.25-4.9-5.11-7.14-2.06-2.46-3.4-5.55-3.88-8.93-.71-4.98,1.83-9.84,6.33-12.09.85-.43,1.76-.71,2.71-.84.36-.05.73-.08,1.09-.08,4.15,0,7.75,3.28,8.37,7.62l1.25,8.74c.02.15.07.28.15.41l2.09,3.48c2.52,4.2,4.67,8.65,6.39,13.23.06.15.14.28.25.39l18.35,18.01s.04.07.03.11c-.02.06-.07.06-.08.06-2.04.16-6.12.42-10.49.42h0Z"/>
        <path class="cls-1" d="M91.96,294.63c3.84,0,7.3,3.16,7.88,7.19l1.25,8.74c.03.21.1.41.21.6l2.09,3.48c2.5,4.17,4.64,8.6,6.35,13.15.08.22.21.41.37.57l17.72,17.39c-2.2.16-5.77.36-9.56.36-11.18,0-15.17-1.77-15.17-3.43v-.34l-.21-.27-2.98-3.88c-.71-1.74-3.66-8.89-5.11-10.34-.92-.92-2.14-2.77-3.56-4.91-1.53-2.31-3.26-4.93-5.14-7.18-2-2.39-3.3-5.39-3.77-8.68-.68-4.77,1.75-9.42,6.06-11.58.8-.4,1.66-.67,2.55-.8.34-.05.68-.07,1.02-.07M91.96,293.63c-.38,0-.77.03-1.16.08-.98.14-1.95.44-2.86.89-4.68,2.34-7.34,7.42-6.6,12.61.48,3.36,1.81,6.57,3.99,9.18,3.61,4.32,6.74,10.13,8.77,12.16,1.41,1.42,4.94,10.13,4.94,10.13l3.06,3.99c0,3.62,8.53,4.43,16.17,4.43,4.4,0,8.51-.27,10.53-.43.51-.04.74-.67.37-1.03l-18.35-18.01c-.06-.06-.11-.13-.14-.21-1.74-4.62-3.89-9.08-6.43-13.31l-2.09-3.48c-.04-.07-.07-.14-.08-.22l-1.25-8.74c-.64-4.51-4.45-8.05-8.87-8.05h0Z"/>
      </g>
      <g>
        <path class="cls-3" d="M152.01,307.59c-.26,0-.48-.18-.52-.42-.26-1.73-1.25-3.28-2.72-4.23l-2.25-1.47h-7.6c-.97,0-1.91-.28-2.72-.82-1.88-1.26-3.01-3.36-3.01-5.62,0-1.99,1.35-3.71,3.28-4.2.51-.13,1.02-.19,1.55-.19.98,0,1.97.23,2.85.67l3.87,1.93c1.58.79,3.31,1.21,5.02,1.21.33,0,.66-.02,1-.05.43-.04.88-.07,1.3-.07,1.25,0,1.61.23,1.71.33,1.09,1.09,1.74,2.36,2.12,3.12.15.29.26.51.35.64,1.44,2.1.92,5.01-1.2,6.64-.46.35-.76.77-.91,1.25l-.07.24c-.19.62-.75,1.03-1.39,1.03h-.67Z"/>
        <path class="cls-1" d="M138.02,291.14c.91,0,1.81.21,2.63.62l3.87,1.93c1.65.82,3.46,1.26,5.25,1.26.35,0,.7-.02,1.04-.05.46-.04.88-.07,1.25-.07,1.07,0,1.36.19,1.36.19,0,0,0,0,0,0,1.03,1.03,1.66,2.26,2.03,2.99.16.3.27.53.39.7,1.29,1.88.81,4.5-1.09,5.96-.53.41-.91.93-1.08,1.5l-.07.24c-.12.4-.49.68-.91.68h-.69c-.28-1.87-1.35-3.54-2.94-4.57l-2.12-1.39-.25-.16h-7.75c-.87,0-1.71-.26-2.44-.74-1.74-1.16-2.79-3.11-2.79-5.21,0-1.76,1.19-3.28,2.9-3.71.47-.12.94-.18,1.42-.18M138.02,290.14c-.56,0-1.12.07-1.67.21-2.15.54-3.66,2.47-3.66,4.68,0,2.43,1.21,4.69,3.23,6.04h0c.89.59,1.93.91,2.99.91h7.45l2.12,1.39c1.36.89,2.26,2.31,2.5,3.89.07.49.51.84,1.01.84h.67c.86,0,1.62-.56,1.87-1.38l.07-.24c.12-.41.4-.74.74-1,2.24-1.73,2.93-4.95,1.3-7.32-.32-.47-1-2.3-2.53-3.83-.36-.36-1.16-.48-2.07-.48-.44,0-.9.03-1.34.07-.32.03-.63.04-.95.04-1.66,0-3.3-.41-4.8-1.15l-3.87-1.93c-.96-.48-2.01-.73-3.07-.73h0Z"/>
      </g>
      <g>
        <path class="cls-5" d="M143.66,351.96c-1.45-.07-2.81-.72-3.78-1.81-1.03-1.15-1.53-2.7-1.36-4.24l.55-4.91c.16-1.45.53-2.86,1.11-4.2l3.7-8.63c.33-1.28,1.42-2.13,2.66-2.13.19,0,.39.02.58.06,1.89.41,3.13,2.22,2.82,4.13-.9,5.47-.9,5.67-.9,5.77v4.82c0,1.51-.42,2.99-1.2,4.28l-4.17,6.85Z"/>
        <path class="cls-1" d="M146.53,326.55c.16,0,.32.02.47.05,1.63.35,2.7,1.92,2.43,3.56-.9,5.51-.9,5.71-.9,5.85v4.82c0,1.42-.39,2.81-1.13,4.02l-4.01,6.58c-1.2-.13-2.33-.71-3.14-1.62-.94-1.05-1.39-2.45-1.23-3.85l.55-4.91c.16-1.4.52-2.76,1.07-4.06l3.7-8.63.03-.07.02-.08c.25-.99,1.14-1.68,2.15-1.68M146.53,325.55c-1.44,0-2.75.98-3.12,2.43l-3.7,8.63c-.59,1.38-.98,2.85-1.14,4.34l-.55,4.91c-.39,3.52,2.37,6.61,5.91,6.61l4.32-7.09c.83-1.37,1.27-2.94,1.27-4.54v-4.82c0-.21.47-3.13.89-5.69.36-2.17-1.06-4.24-3.21-4.7-.23-.05-.46-.07-.68-.07h0Z"/>
      </g>
      <g>
        <path class="cls-7" d="M194.1,391.78c-4.19-2.8-8.76-6.33-8.88-7.19,0-1.5-4.48-7.28-5.95-9.13l1.01-1.01,5.71,1.43,10.61,10.61,5.84,4.39-1.17,2.35-7.18-1.44Z"/>
        <path class="cls-1" d="M180.44,375l5.3,1.33,2.86,2.86,3.06,3.06,4.59,4.59.05.05.06.04,5.45,4.09-.82,1.63-6.71-1.34c-3.83-2.57-8.12-5.84-8.58-6.82-.15-1.62-3.45-6.05-5.78-8.99l.5-.5M180.13,373.89l-1.53,1.53s6.12,7.65,6.12,9.18,9.18,7.65,9.18,7.65l7.65,1.53,1.53-3.06-6.12-4.59-4.59-4.59-3.06-3.06-3.06-3.06-6.12-1.53h0Z"/>
      </g>
      <g>
        <path class="cls-9" d="M594.68,305.95c-1.28,0-2.47-.58-3.26-1.59l-6.89-8.82-6.11-10.7-19.72-21.13c-1.2-1.29-2.63-2.3-4.24-3.01l-16.2-7.09c-3.79-1.66-6.93-4.42-9.06-7.97l-5.84-9.74-13.55-20.33c-1.21-1.81-2.76-3.32-4.61-4.47l-6.78-4.24c-.73-.46-1.58-.7-2.44-.7-1.23,0-2.39.48-3.26,1.35-.98.98-2.29,1.52-3.67,1.52-.42,0-.85-.05-1.26-.15l-2.99-.75-1.73-.7c-2.38-.95-4.88-1.43-7.43-1.43-1.63,0-3.27.2-4.85.6l-.13.03-4.66,4.66c-1.97,1.97-4.59,3.05-7.38,3.05-1.95,0-3.86-.55-5.52-1.58l-4.8-3-14.46-17.35c-.57-.68-1.3-1.22-2.11-1.57l-5.93-2.54c-.34-.15-.7-.22-1.06-.22-.78,0-1.53.35-2.04.95-.51.6-.72,1.37-.59,2.16l.89,5.36,3.84,6.39c.57.94,1.3,1.76,2.18,2.42l9.5,7.12c.26.2.42.49.45.82.02.33-.1.64-.33.87-2.19,2.19-3.87,4.91-4.85,7.85l-1.53,4.6-2.22,1.11c-.17.09-.37.13-.57.13-.14,0-.27-.02-.4-.07l-1.83-.61c-1.1-.37-1.88-1.3-2.04-2.45l-.84-5.89c-.26-1.83-1.29-3.47-2.83-4.5-1.51-1.01-2.81-2.27-3.87-3.75l-11.87-16.62c-.55-.77-1.44-1.23-2.38-1.23-.85,0-1.65.37-2.21,1.01l-17.88,20.63-10.31,13.23-16.49,13.99c-4.99,4.23-10.29,7.67-15.75,10.22-2.98,1.39-5.24,2.12-6.52,2.12-.35,0-.62-.06-.8-.16-2.88-1.71-5.88-9.15-5.91-9.22l-.08-.19-6.63-2.8c-3.34-1.41-5.5-4.66-5.5-8.28,0-2.92,1.19-5.77,3.26-7.82l6.08-6.04c1.86-1.84,3.25-4.14,4.01-6.65l3.87-12.64c.6-1.97,2.39-3.29,4.44-3.29h10.5c4.52,0,8.59-2.69,10.38-6.84,1.11-2.59,0-5.58-2.53-6.81-1.89-.92-2.87-2.99-2.38-5.04l2.07-8.65c.79-3.31,3.71-5.62,7.11-5.62.27,0,.54.01.81.05l2.46.27c.32.04.64.05.96.05,2.63,0,5.09-1.17,6.76-3.21l7.65-9.38c1.21-1.48,2.14-3.15,2.77-4.96l4.02-11.6c.29-.84.72-1.62,1.28-2.31l4.98-6.2c.59-.73,1.46-1.15,2.39-1.15s1.77.4,2.36,1.1l2.24,2.68c1.48,1.78,3.66,2.8,5.98,2.8,1.35,0,2.68-.35,3.86-1.03l5.53-3.16,3.18-5.3c.89-1.48,2.29-2.57,3.94-3.07l12.77-3.83,5.04-11.33c.72-1.61,1.96-2.96,3.51-3.81l11.73-6.4c1.74-.95,2.82-2.76,2.82-4.74v-1.23c0-3.06-2.49-5.55-5.55-5.55-1.8,0-3.51.78-4.68,2.15l-5.74,6.66c-1.04,1.21-2.56,1.91-4.16,1.91h-2.36c-1.63,0-3.09-.84-3.91-2.25-.82-1.41-.82-3.1,0-4.51l1.84-3.2,6.54-7.61c1.69-1.97,1.96-4.8.67-7.05l-1.83-3.21c-1.02-1.78-2.92-2.89-4.97-2.89-.78,0-1.54.16-2.25.46l-2.89,1.24c-2.39,1.02-4.35,2.87-5.51,5.2l-4.37,8.74-6.75,8.1c-.63.76-1.01,1.68-1.09,2.67l-1.22,14.65c-.11,1.29-.89,2.44-2.05,3.02l-4.25,2.12c-.21.1-.42.15-.64.15-.69,0-1.44-.55-1.44-1.45v-2.88l2.08-5.19c.65-1.62.4-3.5-.65-4.9l-1.33-1.77c-.57-.76-1.45-1.2-2.41-1.2-.8,0-1.56.31-2.12.88-1.15,1.15-2.67,1.78-4.29,1.78-.44,0-.88-.05-1.32-.14l-2.14-.47c-4.21-.94-6.95-5.14-6.11-9.37l.63-3.17c.48-2.39,1.94-4.51,4.01-5.8l8.8-5.5c.15-.1,12.99-8.79,16.79-10.69,3.13-1.57,4.72-3.15,6.25-4.68,1.12-1.12,4.34-8.5,4.7-9.34l10.55-19.62,4.41,1.32c3.58,1.07,6.43,3.67,7.81,7.14l1.06,2.65c1.85,4.63,4.81,8.84,8.54,12.15l3.13,2.79h.19c5.01,0,9.29-3.58,10.19-8.5l.47-2.59c.72-3.94,2.45-7.65,5-10.73l3.5-4.22c44.8,18.14,84.09,43.79,116.79,76.22,26.23,26.01,48.3,56.43,65.6,90.41,26.29,51.62,33.47,96.01,34.75,105.33l-12.18-15.57c-.8-1.02-1.4-2.17-1.79-3.41l-6.06-19.4c-.67-2.14-1.72-4.1-3.13-5.83l-11.29-13.9c-2.15-2.65-5.35-4.17-8.76-4.17-2.46,0-4.79.78-6.76,2.26l-1.62,1.21c-1.59,1.19-2.78,2.89-3.35,4.79l-3.4,11.32c-.26.85-.35,1.73-.27,2.61l.77,9.19c.42,5.01-.87,10.08-3.63,14.28l-3.11,4.74c-1.59,2.42-3.98,4.25-6.74,5.13l-9.87,3.17c-3.18,1.02-6.19,2.49-8.95,4.37l-10.3,7.01c-.69.47-1.49.72-2.32.72Z"/>
        <path class="cls-1" d="M436.24,26.05l4.02,1.2c3.43,1.03,6.16,3.52,7.49,6.85l1.06,2.65c1.88,4.71,4.88,8.97,8.67,12.34l2.99,2.66.28.25h.38c5.25,0,9.74-3.75,10.68-8.91l.47-2.59c.7-3.85,2.39-7.48,4.9-10.5l3.27-3.94c44.59,18.11,83.7,43.66,116.27,75.96,26.19,25.97,48.23,56.34,65.51,90.26,24.82,48.73,32.59,91.01,34.45,103.35l-11.02-14.09c-.76-.98-1.34-2.07-1.71-3.25l-6.06-19.4c-.69-2.19-1.77-4.21-3.22-6l-11.29-13.9c-2.25-2.77-5.58-4.35-9.15-4.35-2.56,0-5.01.81-7.06,2.36l-1.62,1.21c-1.7,1.27-2.92,3.02-3.52,5.05l-3.4,11.32c-.27.91-.37,1.85-.29,2.8l.77,9.19c.41,4.9-.85,9.86-3.55,13.97l-3.11,4.74c-1.53,2.33-3.83,4.08-6.48,4.93l-9.87,3.17c-3.22,1.04-6.28,2.53-9.07,4.43l-10.3,7.01c-.61.41-1.31.63-2.04.63-1.13,0-2.17-.51-2.86-1.4l-6.85-8.77-6.09-10.65-.06-.1-.08-.09-19.68-21.09c-1.25-1.34-2.73-2.39-4.41-3.12l-16.2-7.09c-3.7-1.62-6.75-4.3-8.83-7.77l-5.87-9.78-13.54-20.31c-1.25-1.87-2.85-3.43-4.76-4.62l-6.78-4.24c-.81-.51-1.75-.78-2.71-.78-1.37,0-2.65.53-3.61,1.5-.89.89-2.07,1.38-3.32,1.38-.38,0-.77-.05-1.14-.14l-2.93-.73-1.73-.69c-2.43-.97-5-1.47-7.62-1.47-1.68,0-3.35.21-4.97.61l-.27.07-.2.2-4.57,4.57c-1.87,1.88-4.37,2.91-7.02,2.91-1.86,0-3.68-.52-5.26-1.51l-4.74-2.96-14.41-17.29c-.62-.74-1.41-1.33-2.3-1.71l-5.93-2.54c-.4-.17-.82-.26-1.25-.26-.93,0-1.81.41-2.42,1.13-.6.71-.86,1.64-.7,2.57l.88,5.26.03.19.1.16,3.79,6.31c.6,1,1.38,1.86,2.31,2.56l9.5,7.12c.2.15.24.35.25.45,0,.11,0,.31-.18.48-2.25,2.25-3.97,5.03-4.97,8.04l-1.47,4.4-2.03,1.02c-.11.05-.23.08-.34.08-.08,0-.16-.01-.24-.04l-1.82-.61c-.92-.31-1.57-1.09-1.71-2.04l-.84-5.89c-.28-1.97-1.39-3.74-3.05-4.84-1.46-.97-2.72-2.19-3.74-3.62l-11.87-16.62c-.64-.9-1.68-1.43-2.79-1.43-.99,0-1.94.43-2.59,1.18l-17.88,20.63-.02.02-.02.02-10.27,13.17-16.45,13.96c-4.95,4.21-10.21,7.62-15.63,10.14-3.69,1.72-5.46,2.08-6.31,2.08-.37,0-.51-.07-.54-.09-2.27-1.35-4.89-6.94-5.7-8.98l-.16-.39-.38-.16-6.44-2.72c-3.15-1.33-5.19-4.4-5.19-7.82,0-2.78,1.13-5.51,3.11-7.47l6.08-6.04c1.92-1.9,3.35-4.27,4.14-6.85l3.87-12.64c.54-1.75,2.13-2.93,3.96-2.93h10.5c4.72,0,8.98-2.8,10.84-7.15,1.21-2.83,0-6.11-2.77-7.45-1.68-.82-2.55-2.66-2.11-4.47l2.06-8.65c.74-3.08,3.46-5.23,6.62-5.23.25,0,.51.01.76.04l2.46.27c.34.04.68.06,1.02.06,2.78,0,5.39-1.24,7.15-3.39l7.65-9.38c1.25-1.53,2.2-3.25,2.85-5.11l4.02-11.6c.27-.79.68-1.52,1.2-2.16l4.98-6.2c.49-.61,1.22-.96,2-.96.76,0,1.48.34,1.97.92l2.24,2.68c1.58,1.89,3.9,2.98,6.36,2.98,1.44,0,2.86-.38,4.11-1.09l5.42-3.09.23-.13.13-.22,3.11-5.19c.82-1.37,2.12-2.38,3.66-2.84l12.55-3.77.44-.13.19-.42,4.94-11.12c.67-1.51,1.84-2.78,3.29-3.57l11.73-6.4c1.9-1.03,3.08-3.02,3.08-5.18v-1.23c0-3.33-2.71-6.05-6.05-6.05-1.95,0-3.79.85-5.06,2.32l-5.74,6.66c-.95,1.1-2.33,1.73-3.78,1.73h-2.36c-1.45,0-2.75-.75-3.47-2-.73-1.26-.73-2.76,0-4.01l1.79-3.12,6.53-7.62c1.82-2.13,2.12-5.19.72-7.63l-1.83-3.21c-1.11-1.94-3.18-3.14-5.41-3.14-.85,0-1.67.17-2.45.5l-2.89,1.24c-2.5,1.07-4.55,3-5.77,5.44l-4.35,8.69-6.71,8.05c-.7.84-1.12,1.86-1.21,2.95l-1.22,14.65c-.09,1.11-.77,2.12-1.77,2.62l-4.25,2.12c-.14.07-.28.1-.42.1-.45,0-.94-.36-.94-.95v-2.79l2.04-5.1c.71-1.79.44-3.85-.71-5.39l-1.32-1.77c-.67-.89-1.69-1.4-2.81-1.4-.94,0-1.81.36-2.48,1.03-1.05,1.05-2.45,1.63-3.94,1.63-.41,0-.81-.04-1.21-.13l-2.14-.47c-3.95-.88-6.52-4.82-5.72-8.79l.63-3.17c.45-2.26,1.83-4.25,3.78-5.48l8.83-5.52c.13-.09,12.95-8.76,16.72-10.65,3.21-1.6,4.82-3.22,6.38-4.78,1.12-1.12,3.92-7.47,4.78-9.45l10.35-19.27M480.15,24.86l-3.74,4.5c-2.62,3.15-4.38,6.93-5.11,10.96l-.47,2.59c-.85,4.69-4.93,8.09-9.7,8.09l-2.99-2.66c-3.69-3.28-6.57-7.38-8.4-11.96l-1.06-2.65c-1.44-3.59-4.43-6.33-8.13-7.43l-4.8-1.44-10.76,20.02s-3.51,8.1-4.59,9.18c-1.53,1.53-3.06,3.06-6.12,4.59-3.87,1.94-16.83,10.71-16.83,10.71l-8.8,5.5c-2.2,1.37-3.73,3.59-4.24,6.13l-.63,3.17c-.91,4.53,1.98,8.96,6.49,9.96l2.14.47c.47.11.95.16,1.42.16,1.72,0,3.4-.68,4.64-1.92.49-.49,1.13-.73,1.77-.73.76,0,1.51.34,2.01,1l1.32,1.77c.95,1.27,1.17,2.94.58,4.42l-2.11,5.28v2.98c0,1.13.92,1.95,1.94,1.95.29,0,.58-.07.87-.21l4.25-2.12c1.32-.66,2.2-1.96,2.32-3.43l1.22-14.65c.07-.88.42-1.71.98-2.39l6.78-8.14,4.4-8.8c1.11-2.23,2.98-3.98,5.26-4.96l2.89-1.24c.67-.29,1.37-.42,2.06-.42,1.83,0,3.58.96,4.54,2.63l1.83,3.21c1.18,2.07.94,4.67-.62,6.48l-6.59,7.69-1.84,3.2c-1.92,3.34.49,7.52,4.34,7.52h2.36c1.74,0,3.4-.76,4.54-2.08l5.74-6.66c1.08-1.25,2.65-1.97,4.3-1.97,2.79,0,5.05,2.26,5.05,5.05v1.23c0,1.79-.98,3.44-2.55,4.3l-11.73,6.4c-1.65.9-2.96,2.32-3.73,4.04l-4.94,11.12-12.55,3.77c-1.77.53-3.28,1.7-4.23,3.29l-3.11,5.19-5.42,3.09c-1.13.65-2.38.96-3.61.96-2.1,0-4.17-.91-5.6-2.62l-2.24-2.68c-.71-.86-1.73-1.28-2.74-1.28-1.03,0-2.07.45-2.78,1.33l-4.98,6.2c-.59.74-1.05,1.57-1.36,2.46l-4.02,11.6c-.61,1.75-1.51,3.37-2.68,4.8l-7.65,9.38c-1.57,1.93-3.92,3.03-6.37,3.03-.3,0-.61-.02-.91-.05l-2.46-.27c-.29-.03-.58-.05-.87-.05-3.58,0-6.75,2.45-7.6,6l-2.06,8.65c-.54,2.26.56,4.59,2.65,5.6,2.29,1.11,3.29,3.83,2.29,6.16-1.7,3.97-5.6,6.54-9.92,6.54h-10.5c-2.26,0-4.26,1.48-4.92,3.64l-3.87,12.64c-.75,2.43-2.08,4.65-3.89,6.44l-6.08,6.04c-2.18,2.16-3.41,5.11-3.41,8.18,0,3.82,2.29,7.26,5.8,8.74l6.44,2.72s3.06,7.65,6.12,9.47c.27.16.62.23,1.06.23,1.56,0,4.08-.94,6.73-2.17,5.73-2.67,11.03-6.19,15.86-10.29l16.53-14.02,10.33-13.25,17.88-20.63c.49-.56,1.16-.84,1.83-.84.75,0,1.49.34,1.98,1.02l11.87,16.62c1.09,1.52,2.44,2.83,4,3.87,1.42.95,2.38,2.46,2.62,4.15l.84,5.89c.19,1.32,1.11,2.43,2.38,2.85l1.82.61c.18.06.37.09.56.09.27,0,.54-.06.79-.19l2.41-1.2,1.6-4.8c.96-2.88,2.58-5.5,4.73-7.65.7-.7.62-1.85-.17-2.45l-9.5-7.12c-.83-.62-1.52-1.39-2.05-2.28l-3.79-6.31-.88-5.26c-.23-1.39.87-2.53,2.14-2.53.28,0,.57.06.86.18l5.93,2.54c.75.32,1.41.81,1.93,1.43l14.51,17.42,4.87,3.04c1.79,1.12,3.79,1.66,5.79,1.66,2.82,0,5.62-1.09,7.73-3.2l4.57-4.57c1.56-.39,3.15-.58,4.73-.58,2.47,0,4.93.47,7.25,1.4l1.79.72,2.99.75c.46.11.92.17,1.38.17,1.49,0,2.95-.59,4.03-1.67h0c.79-.79,1.84-1.2,2.91-1.2.75,0,1.5.2,2.18.62l6.78,4.24c1.78,1.11,3.3,2.59,4.46,4.33l13.54,20.31,5.84,9.74c2.17,3.62,5.42,6.48,9.29,8.17l16.2,7.09c1.54.67,2.93,1.66,4.08,2.89l19.68,21.09,6.12,10.71,6.89,8.82c.91,1.16,2.27,1.78,3.65,1.78.9,0,1.81-.26,2.6-.8l10.3-7.01c2.72-1.85,5.69-3.3,8.82-4.31l9.87-3.17c2.88-.93,5.35-2.81,7.01-5.33l3.11-4.74c2.83-4.32,4.14-9.46,3.71-14.6l-.77-9.19c-.07-.82.02-1.64.25-2.43l3.4-11.32c.54-1.81,1.65-3.4,3.17-4.54l1.62-1.21c1.94-1.45,4.21-2.16,6.46-2.16,3.14,0,6.25,1.37,8.37,3.98l11.29,13.9c1.36,1.68,2.4,3.6,3.04,5.67l6.06,19.4c.4,1.29,1.04,2.5,1.87,3.57l13.3,17s-20.68-194.6-218.02-274.3h0Z"/>
      </g>
      <g>
        <path class="cls-8" d="M521.46,572.1c-1.17,0-2.33-.29-3.37-.83l-25.48-13.35c-1.07-.56-2.17-1.1-3.26-1.59l-15.19-6.91-17.41-6.97c-3.36-1.34-5.91-4.24-6.81-7.75-1.95-7.57-3.03-12.51-3.03-13.91,0-3.22-8.43-9.46-9.39-10.16l-7.51-8.2c-1.85-2.02-2.64-4.82-2.1-7.51l3.68-18.42,1.29-3.86c3.1-9.32,2.03-19.51-2.95-27.98l-5.75-9.77c-1.24-2.11-2.78-4.04-4.58-5.71l-28.91-27.03c-3.91-3.65-9-5.66-14.34-5.66-.62,0-1.25.03-1.87.08l-12.71,1.14c-1.06.09-2.13.14-3.19.14-5.55,0-11.11-1.31-16.07-3.79l-17.21-8.6c-2.73-1.36-5.33-3.01-7.73-4.89-1.44-1.13-2.27-2.82-2.27-4.65v-17.85c0-1.73-.21-3.47-.63-5.15l-3.33-13.33c-.79-3.16-.98-6.4-.55-9.62l.78-5.92c.43-3.31,1.72-6.47,3.71-9.15l22.12-29.66,9.01-17.86,3.51-5.05c1.18-1.69,3.11-2.71,5.17-2.71h5.82c3.93,0,7.78-1.37,10.83-3.86l8.56-7.01c2.4-1.96,5.11-3.42,8.07-4.33l11.25-3.46c2.69-.83,5.47-1.46,8.25-1.89l8.17-1.26c.63-.1,1.27-.15,1.91-.15,3.85,0,7.44,1.73,9.83,4.76l.61.77c1.22,1.55,2.03,3.39,2.34,5.34l.35,2.23c.69,4.44,3.74,8.17,7.94,9.75l1.06.4c1.58.59,3.24.89,4.93.89s3.2-.27,4.72-.82l10.12-3.61c1.74-.62,3.55-.93,5.39-.93,2.48,0,4.96.59,7.17,1.69l9.78,4.89c1.56.78,3.3,1.19,5.05,1.19h9.35c1.31,0,2.62-.31,3.78-.89l13.53-6.76c1.16-.58,2.46-.89,3.75-.89.82,0,1.63.12,2.41.35l4.61,1.38c4.42,1.33,7.94,4.73,9.4,9.12l.79,2.38c.94,2.81,2.39,5.38,4.32,7.63l6.39,7.46,11.39,6.83c2.58,1.55,4.8,3.57,6.59,6l8.57,11.62,6.04,4.9c4.06,3.3,9.18,5.11,14.41,5.11.8,0,1.6-.04,2.39-.13l13.17-1.39c.14-.01.28-.02.42-.02,1.23,0,2.36.58,3.09,1.59.73,1.01.92,2.26.52,3.44l-.64,1.92c-1.19,3.58-2.98,6.9-5.31,9.86l-13.27,16.89-23.67,22.9-10.72,7.42c-2.41,1.67-4.52,3.71-6.29,6.05l-4.63,6.17c-2.43,3.24-3.77,7.26-3.77,11.32l-1.53,13.78,3.07,24.54,2.3,29.95c.49,6.34-.5,12.82-2.86,18.73l-2.47,6.17-4.62,21.51-4.38,22.25c-.15.76-.23,1.53-.23,2.31v15.55c0,2.69-1.05,5.22-2.95,7.12l-3.58,3.58c-1.37,1.37-3.2,2.13-5.14,2.13Z"/>
        <path class="cls-1" d="M417.94,238.17c3.7,0,7.14,1.66,9.44,4.57l.61.77c1.17,1.48,1.94,3.25,2.23,5.11l.35,2.23c.72,4.61,3.89,8.5,8.26,10.14l1.06.4c1.64.61,3.35.92,5.1.92s3.31-.28,4.89-.85l10.12-3.61c1.68-.6,3.44-.9,5.22-.9,2.4,0,4.8.57,6.95,1.64l9.78,4.89c1.63.81,3.45,1.24,5.27,1.24h9.35c1.38,0,2.77-.33,4.01-.95l13.53-6.76c1.09-.54,2.31-.83,3.53-.83.77,0,1.53.11,2.27.33l4.61,1.38c4.27,1.28,7.66,4.57,9.07,8.8l.79,2.38c.96,2.87,2.44,5.5,4.41,7.8l6.34,7.39.11.12.14.08,11.32,6.79c2.53,1.52,4.7,3.49,6.45,5.86l8.53,11.56.08.1.1.08,5.99,4.86c4.15,3.37,9.38,5.22,14.72,5.22.81,0,1.64-.04,2.45-.13l13.17-1.39c.12-.01.24-.02.36-.02,1.07,0,2.05.51,2.68,1.39.63.88.8,1.97.45,2.99l-.64,1.92c-1.17,3.52-2.93,6.79-5.23,9.71l-13.23,16.83-23.61,22.85-10.71,7.43c-2.45,1.7-4.61,3.78-6.4,6.17l-4.63,6.17c-2.49,3.31-3.86,7.42-3.87,11.56l-1.52,13.72v.12s0,.12,0,.12l3.06,24.44,2.31,29.98c.48,6.27-.5,12.67-2.83,18.5l-2.47,6.17-.03.08-.02.08-4.59,21.44-4.38,22.24c-.16.79-.23,1.6-.23,2.4v15.55c0,2.56-1,4.96-2.8,6.77l-3.58,3.58c-1.28,1.28-2.98,1.98-4.79,1.98-1.09,0-2.17-.27-3.14-.77l-25.48-13.35c-1.08-.56-2.18-1.1-3.29-1.61l-15.24-6.92-17.39-6.96c-3.21-1.29-5.65-4.05-6.51-7.41-2.62-10.16-3.01-13-3.01-13.78,0-3.34-7.74-9.21-9.51-10.5l-7.52-8.19c-1.74-1.9-2.48-4.54-1.98-7.07l3.67-18.36,1.29-3.86c3.15-9.45,2.06-19.8-2.99-28.39l-5.74-9.77c-1.27-2.16-2.84-4.12-4.67-5.83l-28.91-27.03c-4-3.74-9.21-5.8-14.69-5.8-.64,0-1.28.03-1.91.09l-12.71,1.14c-1.04.09-2.1.14-3.15.14-5.47,0-10.95-1.29-15.85-3.74l-17.21-8.6c-2.7-1.35-5.27-2.97-7.65-4.83-1.32-1.03-2.08-2.58-2.08-4.25v-17.85c0-1.78-.22-3.55-.65-5.27l-3.33-13.33c-.77-3.1-.96-6.27-.54-9.44l.78-5.92c.42-3.22,1.67-6.31,3.62-8.91l22.12-29.66.05-.07.04-.08,8.93-17.73,3.51-5.05c1.08-1.56,2.86-2.49,4.76-2.49h5.82c4.05,0,8.01-1.41,11.14-3.98l8.56-7c2.35-1.92,5-3.34,7.9-4.24l11.25-3.46c2.67-.82,5.42-1.45,8.18-1.88l8.17-1.26c.6-.09,1.22-.14,1.83-.14M417.94,237.17c-.66,0-1.32.05-1.98.15l-8.17,1.26c-2.82.43-5.6,1.07-8.32,1.91l-11.25,3.46c-3.01.93-5.81,2.43-8.24,4.42l-8.56,7c-2.96,2.43-6.68,3.75-10.51,3.75h-5.82c-2.23,0-4.31,1.09-5.58,2.92l-3.55,5.11-8.97,17.79-22.12,29.66c-2.05,2.75-3.36,5.98-3.81,9.38l-.78,5.92c-.43,3.28-.24,6.6.56,9.81l3.33,13.33c.41,1.64.62,3.33.62,5.03v17.85c0,1.97.91,3.83,2.46,5.04,2.43,1.9,5.05,3.56,7.82,4.94l17.21,8.6c5.07,2.54,10.65,3.85,16.29,3.85,1.08,0,2.16-.05,3.24-.14l12.71-1.14c.61-.05,1.22-.08,1.82-.08,5.18,0,10.19,1.96,14,5.53l28.91,27.03c1.76,1.64,3.27,3.53,4.49,5.6l5.74,9.77c4.9,8.34,5.96,18.39,2.9,27.57l-1.31,3.92-3.68,18.42c-.57,2.85.26,5.8,2.22,7.94l7.58,8.26s9.18,6.7,9.18,9.76c0,1.87,1.71,8.86,3.04,14.03.95,3.68,3.59,6.68,7.11,8.08l17.39,6.96,15.19,6.91c1.09.5,2.17,1.02,3.24,1.58l25.48,13.35c1.14.6,2.37.89,3.6.89,2.01,0,4-.78,5.49-2.27l3.58-3.58c1.98-1.98,3.1-4.67,3.1-7.48v-15.55c0-.74.07-1.48.22-2.21l4.38-22.24,4.59-21.42,2.47-6.17c2.4-6.01,3.4-12.49,2.9-18.95l-2.31-29.98-3.06-24.48,1.53-13.77c0-3.97,1.29-7.84,3.67-11.02l4.63-6.17c1.72-2.3,3.81-4.31,6.17-5.94l10.78-7.47,23.72-22.95,13.27-16.89c2.36-3,4.18-6.39,5.39-10.01l.64-1.92c.94-2.83-1.19-5.69-4.09-5.7-.15,0-.31,0-.47.02l-13.17,1.39c-.78.08-1.56.12-2.34.12-5.11,0-10.09-1.75-14.09-5l-5.99-4.86-8.53-11.56c-1.82-2.47-4.11-4.55-6.74-6.13l-11.32-6.79-6.34-7.39c-1.88-2.19-3.31-4.73-4.23-7.46l-.79-2.38c-1.51-4.54-5.14-8.06-9.73-9.44l-4.61-1.38c-.84-.25-1.7-.37-2.55-.37-1.37,0-2.73.32-3.98.94l-13.53,6.76c-1.11.55-2.32.84-3.56.84h-9.35c-1.67,0-3.33-.39-4.82-1.14l-9.78-4.89c-2.32-1.16-4.85-1.75-7.39-1.75-1.88,0-3.76.32-5.56.96l-10.12,3.61c-1.47.53-3.01.79-4.55.79s-3.22-.29-4.75-.86l-1.06-.4c-4.04-1.52-6.96-5.09-7.62-9.36l-.35-2.23c-.32-2.04-1.16-3.96-2.44-5.58l-.61-.77c-2.49-3.15-6.28-4.95-10.22-4.95h0Z"/>
      </g>
      <g>
        <path class="cls-2" d="M566.56,507.94c-2.69,0-4.89-2.2-4.89-4.9v-2.45c0-.76.11-1.52.34-2.24l5.8-18.85-1.64-8.18c-.86-4.29.71-8.67,4.1-11.44l4.02-3.29c1-.82,2.21-1.25,3.48-1.25,2.51,0,4.65,1.61,5.34,4.02l2.64,9.23c.6,2.11.57,4.34-.1,6.44l-7.21,22.67c-1.48,4.64-5.12,8.3-9.75,9.8l-.61.2c-.5.16-1.01.24-1.52.24h0Z"/>
        <path class="cls-1" d="M577.77,455.85c2.28,0,4.23,1.47,4.86,3.65l2.64,9.23c.58,2.02.55,4.15-.09,6.15l-7.21,22.67c-1.43,4.48-4.95,8.03-9.42,9.48l-.61.2c-.45.15-.91.22-1.37.22-2.42,0-4.39-1.97-4.39-4.4v-2.45c0-.71.11-1.41.31-2.09l5.76-18.73.07-.24-.05-.25-1.61-8.06c-.82-4.11.68-8.3,3.92-10.95l4.02-3.29c.91-.75,2.01-1.14,3.17-1.14M577.77,454.85c-1.32,0-2.66.43-3.8,1.37l-4.02,3.29c-3.52,2.88-5.16,7.47-4.27,11.92l1.61,8.06-5.76,18.73c-.24.77-.36,1.58-.36,2.39v2.45c0,3.08,2.52,5.4,5.39,5.4.55,0,1.11-.09,1.68-.27l.61-.2c4.79-1.56,8.54-5.33,10.07-10.13l7.21-22.67c.69-2.18.73-4.52.1-6.73l-2.64-9.23c-.79-2.75-3.26-4.38-5.82-4.38h0Z"/>
      </g>
      <path class="cls-13" d="M369.36,69.01c-1.98.25-4.37,5.09-6.02,11.84-.06.26-.1.54-.1.81v8.85c0,.52.12,1.03.36,1.49l2.52,4.95c.13.25.22.51.28.78l.56,2.54c.45,2.04,2.66,3.14,4.56,2.29l3.51-1.57c1.67-.75,2.41-2.73,1.64-4.39l-2.2-4.74c-.08-.18-.15-.36-.2-.55l-1.73-6.57c-.07-.27-.11-.55-.11-.84v-8.04c0-.47.1-.93.3-1.36l.39-.86c.89-1.95-.28-4.33-2.4-4.6-.02,0-.04,0-.06,0,0,0-.67-.08-1.29,0Z"/>
      <path class="cls-14" d="M702.38,350.54c0,193.54-156.9,350.44-350.44,350.44S1.5,544.08,1.5,350.54,158.25,2.09,351.79,1.6c194.86-.5,350.58,155.39,350.58,348.93Z"/>
    </g>
  </g>
</svg>