<?xml version="1.0" encoding="UTF-8"?>
<svg id="Ebene_2" data-name="Ebene 2" xmlns="http://www.w3.org/2000/svg" viewBox="0 0 206.22 252.91">
  <defs>
    <style>
      .cls-1 {
        fill: #000;
        stroke: #000;
        stroke-miterlimit: 10;
      }
    </style>
  </defs>
  <g id="Ebene_4" data-name="Ebene 4">
    <path id="fighter" class="cls-1" d="M204.54,128.75l-5.26-4.75c-3.61-3.26-7.78-5.83-12.31-7.6l-10.32-4.03c-1.79-.7-3.63-1.28-5.5-1.73l-7.72-1.86c-2.27-.55-4.25-1.92-5.57-3.84l-1.95-2.85c-1.47-2.15-2.02-4.8-1.52-7.36l3.06-15.64c.33-1.67-.16-3.39-1.31-4.64l-6.38-6.96c-.13-.14-.27-.28-.4-.42l9.96-11.36c1.43-1.63,2.58-3.48,3.42-5.47.35-.82.3-1.76-.13-2.54l-.95-1.74c-.84-1.54-2.05-2.85-3.52-3.82l-10.06-6.6.72-1.07c.27-.4.3-.92.08-1.36l-1.79-3.58c-.18-.36-.23-.78-.14-1.17l.83-3.75s.05-.6.13-1.39c.23-2.51-.58-5.01-2.24-6.94l-.07-.08c-2.04-2.36-5.01-3.71-8.13-3.7h-.21c-3.17,0-6.2,1.34-8.34,3.67l-1.06,1.15c-.37-.96-.91-1.83-1.58-2.58l-.07-.27-.14.04c-1.49-1.53-3.57-2.49-5.87-2.49l3.16-11.11-.97-.27-3.26,11.46c-3.3.42-5.98,2.78-6.87,5.9l-11.54,2.91.25.97,11.07-2.79c-.05.38-.09.77-.09,1.17,0,3.89,2.69,7.13,6.31,8-1.45.72-3.11.89-4.68.45l-35.23-9.69c-.39-.11-.77.2-.74.61l.25,3.51c.12,1.62.41,3.23.86,4.79l.3,1.03c.93,3.16,2.84,5.93,5.45,7.93l1.52,1.16c1.79,1.37,3.38,2.98,4.73,4.78l1.25,1.67-1.53.92-.8-1.15-1.99,1.38,1.29,1.86-49.33,31.25c-6.28,3.98-12.81,7.55-19.56,10.71h0l-16.52,6.84,10.62-1.27c4.62-.55,9.11-1.84,13.31-3.81h0c3.23-1.52,6.37-3.23,9.39-5.13l54.92-34.5,1.24,1.79,1.99-1.38-.58-.84,1.81-1.13c1.74,2.12,3.55,4.18,5.47,6.14l8,8.23c11.73,12.08,18.09,28.44,17.31,45.26-.23,4.85-.94,7.85-.94,7.85l-4.04,16.08-5.46,14.84c-1.47,4.01-3.28,7.89-5.39,11.6l-10.34,18.18c-1.65,2.89-3.55,5.63-5.69,8.18l-4.83,5.75c-1.41,1.68-3.05,3.15-4.87,4.36l-1.61,1.07c-.97.65-1.98,1.22-3.04,1.71l-4.53,2.11c-.7.33-1.16,1.04-1.16,1.81v.2c0,.88.49,1.68,1.28,2.07l3.57,1.78-11.63,19.38-3.67,6.53c-.46.81-1.01,1.57-1.64,2.27-2.59,2.85-5.45,5.45-8.54,7.77l-3.11,2.34-4.67,3.63c-.42.32-.66.82-.66,1.35v.19c0,1.08.99,1.9,2.05,1.68l1.67-.33c.75-.15,1.5-.25,2.26-.3l4.55-.3c1.05-.07,2.09-.25,3.1-.54l.2-.06c1.1-.31,2.12-.85,3-1.59l.12-.1c.58-.48,1.26-.82,1.99-1h.05c.57-.15,1.16-.17,1.74-.07l.46.08c1.01.17,2.05-.05,2.9-.62,1.01-.67,1.69-1.73,1.88-2.93l1.01-6.28c.41-2.59,1.52-5.01,3.21-7.02l15.35-18.25,3.03,2.59c.22.19.53.23.8.1l5.91-2.83c3.83-1.84,7.36-4.24,10.48-7.11l.97-.9c4.58-4.23,8.4-9.21,11.29-14.73l6.29-12.01,7.13-15.29c2.03-4.34,4.29-8.56,6.79-12.65l4.85-7.93c1.32-2.17,3.43-3.74,5.89-4.4,2.27-.61,4.64-.78,6.98-.51l9.06,1.05,5.36.89c.17.03.22.25.09.35l-.02.02c-1.03.77-2.13,1.44-3.29,2l-7.83,3.75c-1.04.5-2.11.93-3.21,1.3-.79.26-1.39.91-1.59,1.71v.04c-.1.37.04.75.34.98.53.39.76.88.89,1.48.16.75.12,1.53-.05,2.28v.05c-.25,1.08-.34,2.19-.28,3.3l.37,6.62c.02.29.02.58.02.87v3.24c0,.75.3,1.46.83,1.99.35.35.91.35,1.26,0l.75-.75c.68-.68,1.14-1.56,1.32-2.51l.44-2.36c.49-2.6,1.4-5.11,2.7-7.41.36-.65.74-1.31,1.08-1.92.88-1.56,2-2.96,3.34-4.17l.06-.05c1.84-1.65,3.93-2.99,6.2-3.96l6.74-2.89s10.7-4.79,15.78-7.04c1.65-.73,2.86-2.19,3.28-3.96v-.06c.31-1.27-.1-2.6-1.07-3.48ZM103.93,37.26l-6.88-6.19s0-.12.06-.1l11.34,3.55-4.52,2.73ZM126.96,46.76c0,.68-.33,1.33-.89,1.72l-1.33.94c-.43.3-.69.8-.69,1.33v.9c0,.63-.38,1.21-.96,1.45-.64.27-1.38.15-1.9-.32l-12.04-10.83,7.62-4.76.93.31c2.27.76,4.34,2.02,6.04,3.7l2.51,2.47c.46.45.71,1.06.71,1.7v1.39ZM138.1,56.45c-1.95-2.3-2.26-5.28-2.17-7.4.07-1.58.88-3.04,2.17-3.96,0,0,.65.29,1.33.6.99.45,2.14.37,3.07-.2l.03-.02c.59-.36,1.05-.9,1.33-1.53l.09-.22,7.75,3.78c.93.46,1.14,1.69.41,2.43l-10.29,10.29c-1.31-1.2-2.63-2.5-3.72-3.78Z"/>
  </g>
</svg>