<?xml version="1.0" encoding="UTF-8"?>
<svg id="Ebene_2" data-name="Ebene 2" xmlns="http://www.w3.org/2000/svg" xmlns:xlink="http://www.w3.org/1999/xlink" viewBox="0 0 306.37 519.81">
  <defs>
    <style>
      .cls-1 {
        fill: none;
      }

      .cls-1, .cls-2 {
        stroke-width: 2px;
      }

      .cls-1, .cls-2, .cls-3 {
        stroke: #000;
        stroke-miterlimit: 10;
      }

      .cls-4 {
        fill: url(#Unbenannter_Verlauf_6);
      }

      .cls-4, .cls-5, .cls-6 {
        stroke-width: 0px;
      }

      .cls-5 {
        fill: #000;
      }

      .cls-2, .cls-3 {
        fill: #fff;
      }

      .cls-3 {
        stroke-width: 1.5px;
      }

      .cls-6 {
        fill: url(#Unbenannter_Verlauf_6-2);
      }
    </style>
    <radialGradient id="Unbenannter_Verlauf_6" data-name="Unbenannter Verlauf 6" cx="218.31" cy="285.4" fx="218.31" fy="285.4" r="41.93" gradientTransform="translate(-16.56) scale(1.02 1)" gradientUnits="userSpaceOnUse">
      <stop offset="0" stop-color="#b61100"/>
      <stop offset=".44" stop-color="#b41000"/>
      <stop offset=".6" stop-color="#ad0f00"/>
      <stop offset=".71" stop-color="#a10d00"/>
      <stop offset=".8" stop-color="#900b00"/>
      <stop offset=".88" stop-color="#7a0700"/>
      <stop offset=".95" stop-color="#600300"/>
      <stop offset="1" stop-color="#460000"/>
    </radialGradient>
    <radialGradient id="Unbenannter_Verlauf_6-2" data-name="Unbenannter Verlauf 6" cx="152.45" cy="337.5" fx="152.45" fy="337.5" r="54.21" gradientTransform="translate(-19.32) scale(1.02 1)" xlink:href="#Unbenannter_Verlauf_6"/>
  </defs>
  <g id="export_version">
    <g id="koifish2">
      <path class="cls-1" d="M76.46,23.87S49.73-1.09.04,1.14"/>
      <g>
        <path class="cls-2" d="M170.37,510.26s-5.46-6.94-22.06-5.16c0,0-45.84-74.66-33.21-162.94,2.06-14.37,6.17-28.37,11.77-41.77l15.12-36.13c7.36-17.58,12.1-36.15,14.06-55.11h0c1.59-15.35,1.53-30.83-.17-46.17h0c-1.85-16.67-5.14-33.15-9.82-49.25h0c-2.93-10.07-7.64-19.54-13.91-27.96l-7.89-10.59c-3.35-4.5-6.99-8.79-10.87-12.84l-36.94-38.48,20.05,9.12c12.71,5.78,24.56,13.28,35.22,22.3h0c4.72,3.99,8.89,8.59,12.41,13.67l5.21,7.52c.64.93,1.95,1.06,2.77.29l16.99-16.04c7.11-6.71,15.12-12.41,23.8-16.92l10.73-5.58c8.87-4.61,18.22-8.23,27.88-10.79h0s-11.11,8.19-11.11,8.19c-15.06,11.1-28.18,24.63-38.8,40.03h0c-4.11,5.95-6.94,12.69-8.32,19.79h0c-1.57,8.08-1.85,16.36-.83,24.53l.74,5.94c2.03,16.25,6.42,32.12,13.03,47.1l16.77,38,11.05,26.13c5.68,13.43,9.81,27.47,12.31,41.84l1.55,8.91c1.73,9.95,2.47,20.04,2.15,30.14-1.07,33-9.9,104.57-59.7,192.24Z"/>
        <path class="cls-1" d="M135.41,510.26s12.14-8.17,24.72-4.88c0,0,12.58,3.29,17.93,13.98"/>
        <path class="cls-3" d="M112.11,387.47s-39.21,5.35-40.99-60.6c0,0,1.94,2.88,6.78,6.06,5.85,3.84,12.93,5.14,19.9,4.46,5.04-.5,12.08.52,16.85,8.27"/>
        <path class="cls-3" d="M225.25,362.69s4.5-12.65,16.97-12.65c0,0,30.3-1.78,35.65-19.61,0,0-8.22,24.67-11.32,46.36-1.9,13.32-11.59,24.47-24.65,27.69-8.3,2.05-17.23.85-23.93-8.84"/>
        <path class="cls-3" d="M209.29,225.86s.85-16.62,16.89-43.36c0,0,13.88,47.32-8.21,64.66"/>
        <path class="cls-3" d="M145.27,255.93s-38.51-14.61-20.68-62.74c0,0,16.58,13.6,25.22,48.68"/>
        <path class="cls-5" d="M154.89,148.63h0c5.71,0,11.18,2.27,15.21,6.3h0c2.74,2.74,3.94,6.68,3.17,10.48h0c-.38,1.88-.56,3.78-.56,5.7v6.14c0,1.11.18,2.21.53,3.27h0c.83,2.49,1.25,5.09,1.25,7.72h0c0,2.06-.67,4.06-1.9,5.7l-.12.16c-2.21,2.94-4.78,5.59-7.65,7.89l-1.5,1.2c-2.05,1.64-4.26,3.06-6.61,4.25h0s3.52-23.17-1.82-58.82Z"/>
        <path class="cls-5" d="M191.67,214.58h0c-.38.16-.7.43-.93.76l-3.13,4.59c-1.01,1.49-2.2,2.92-3.77,3.79-1.08.6-1.97,2.89-2.22,3.33-.51.92-.82,1.59-1.02,2.16-.98,2.76-2.58,5.27-4.51,7.48l-.84.96c-.47.54-.64,1.29-.45,1.98h0c.76,2.72,3.81,4.07,6.34,2.8h0c1.49-.75,2.8-1.81,3.85-3.11l2.3-2.88c2.16-2.7,3.98-5.64,5.43-8.78l2.41-5.21c.5-1.09.76-2.27.76-3.47v-1.63c0-2.17-2.21-3.64-4.21-2.79Z"/>
        <g>
          <path class="cls-4" d="M228.11,339.67c-1.46-1.43-2.14-3.48-1.82-5.48.4-2.52.26-5.04-.42-7.49l-1.94-7.03v-1.75c0-3.55-1.32-6.97-3.73-9.63l-1.14-1.26-1.85-2.51c-4.06-5.49-9.67-9.52-16.22-11.66-4.16-1.36-7.87-3.8-10.72-7.07-4.16-4.75-6.72-10.55-7.43-16.77l-.02-.21c-.45-3.95.05-8.02,1.44-11.76.89-2.4,2.78-4.33,5.18-5.31l3.35-1.37c2.41-.99,4.67-2.3,6.72-3.9,4.08-3.2,7.37-7.13,9.78-11.67l2.15-4.05c22.78,50.2,17.98,101.58,17.08,109.32l-.4-.39Z"/>
          <path class="cls-5" d="M211.38,231.88c12.41,27.77,16.28,55.59,17.32,74.21.91,16.12-.09,28.26-.58,32.87-1.11-1.29-1.62-3.01-1.35-4.69.41-2.59.27-5.18-.43-7.71l-1.92-6.96v-1.68c0-3.68-1.37-7.21-3.86-9.96l-1.11-1.22-1.85-2.51c-4.12-5.57-9.81-9.67-16.47-11.84-4.08-1.33-7.71-3.73-10.5-6.92-4.09-4.68-6.62-10.38-7.31-16.5l-.02-.21c-.44-3.88.05-7.86,1.41-11.53.84-2.26,2.63-4.1,4.9-5.02l3.35-1.37c2.46-1,4.76-2.34,6.84-3.97,4.14-3.24,7.47-7.22,9.92-11.83l1.67-3.15M211.45,229.62l-2.62,4.94c-2.36,4.45-5.65,8.38-9.65,11.51-2.01,1.57-4.23,2.86-6.6,3.83l-3.35,1.37c-2.54,1.04-4.52,3.07-5.46,5.6-1.42,3.83-1.92,7.94-1.46,11.99l.02.21c.71,6.3,3.34,12.24,7.55,17.05,2.91,3.33,6.7,5.83,10.94,7.21h0c6.42,2.1,12.01,6.11,15.98,11.48l1.88,2.55,1.14,1.26c2.32,2.56,3.6,5.87,3.6,9.29v1.81l1.96,7.1c.66,2.37.79,4.85.41,7.28-.35,2.17.39,4.36,1.97,5.91l1.12,1.1s8.03-56.26-17.42-111.51h0Z"/>
        </g>
        <g>
          <path class="cls-6" d="M115,410.45c-2.61-13.75-9.87-70.15,26.85-145.9l.61,8.28c.61,8.23,4.15,16.05,9.98,22.03l.7.72c1.98,2.03,3.56,4.37,4.69,6.94,2.35,5.37,2.5,11.33.4,16.8l-1.5,3.9c-.35.91-1.13,1.6-2.1,1.84-3.47.88-6.33,3.2-7.86,6.37l-.39.81c-.96,1.99-1.26,4.19-.87,6.36l.61,3.42c.54,3.01,2.53,5.62,5.32,6.98l.84.41c3.61,1.77,6.37,4.94,7.55,8.71l.5,1.6c.77,2.43.75,5-.03,7.43l-2.52,7.79c-1.06,3.28-3.23,6.19-6.1,8.2l-3.58,2.5c-3,2.1-6.35,3.56-9.96,4.34l-7.21,1.57c-2.5.54-4.85,1.52-6.99,2.91-5.09,3.32-8.31,8.64-8.82,14.6l-.12,1.41Z"/>
          <path class="cls-5" d="M141.49,266.45l.47,6.41c.62,8.35,4.21,16.28,10.12,22.34l.7.72c1.94,1.99,3.48,4.27,4.59,6.8,2.3,5.24,2.44,11.08.39,16.42l-1.5,3.9c-.29.76-.95,1.33-1.76,1.54-3.61.92-6.6,3.34-8.19,6.64l-.39.81c-1.01,2.09-1.32,4.39-.92,6.66l.61,3.42c.57,3.16,2.66,5.91,5.59,7.34l.84.41c3.49,1.71,6.15,4.77,7.3,8.41l.5,1.6c.73,2.34.72,4.8-.03,7.13l-2.52,7.79c-1.03,3.18-3.13,6-5.91,7.94l-3.58,2.49c-2.95,2.06-6.24,3.49-9.78,4.26l-7.21,1.57c-2.56.56-4.97,1.56-7.16,2.98-4.65,3.03-7.78,7.69-8.78,12.99-1.1-6.92-2.39-19.11-1.6-35.41,1.14-23.6,7-60.79,28.2-105.15M142.22,262.67c-43.8,89.12-27,151.14-27,151.14l.41-4.72c.5-5.77,3.66-11.01,8.6-14.22h0c2.07-1.35,4.39-2.31,6.82-2.84l7.21-1.57c3.65-.79,7.1-2.29,10.14-4.42l3.58-2.49c2.98-2.08,5.19-5.04,6.29-8.45l2.52-7.79c.81-2.52.83-5.21.03-7.74l-.5-1.6c-1.23-3.92-4.06-7.18-7.81-9.01l-.84-.41c-2.66-1.3-4.53-3.76-5.05-6.62l-.61-3.42c-.37-2.05-.08-4.17.83-6.05l.39-.81c1.46-3.03,4.22-5.26,7.54-6.1h0c1.12-.29,2.03-1.09,2.44-2.15l1.5-3.9c2.14-5.56,1.99-11.72-.41-17.18h0c-1.15-2.62-2.77-5.03-4.79-7.09l-.7-.72c-5.76-5.9-9.24-13.58-9.84-21.72l-.75-10.12h0Z"/>
        </g>
        <path class="cls-5" d="M169.11,352.14h0c-1.03-.19-2.06.34-2.5,1.29l-.87,1.88c-.58,1.25-.8,2.63-.64,3.99l.4,3.4c.4,3.39-.08,6.83-1.39,9.98l-.39.94c-.96,2.3.04,4.95,2.28,6.05h0c.78.38,1.73.14,2.23-.57l5.2-7.39c1.76-2.5,2.81-5.44,3.02-8.5l.1-1.46c.33-4.63-2.89-8.77-7.46-9.6Z"/>
        <path class="cls-5" d="M116.98,417.82l15.25,10.29c9.01,6.08,19.41,9.8,30.24,10.81h0c10.02.94,19.31,5.63,26.01,13.13l7.04,7.88-25.16,50.32s-10.81-8.72-22.06-5.16c0,0-31.8-69.4-31.33-87.28Z"/>
        <path class="cls-1" d="M227.96,29.21s45.73-26.43,78.12-16.78"/>
      </g>
    </g>
  </g>
</svg>