<?xml version="1.0" encoding="UTF-8"?>
<svg id="Ebene_2" data-name="Ebene 2" xmlns="http://www.w3.org/2000/svg" xmlns:xlink="http://www.w3.org/1999/xlink" viewBox="0 0 317.37 491.75">
  <defs>
    <style>
      .cls-1 {
        fill: none;
      }

      .cls-1, .cls-2 {
        stroke-width: 2px;
      }

      .cls-1, .cls-2, .cls-3 {
        stroke: #000;
        stroke-miterlimit: 10;
      }

      .cls-4 {
        fill: url(#Unbenannter_Verlauf_6);
      }

      .cls-4, .cls-5, .cls-6 {
        stroke-width: 0px;
      }

      .cls-5 {
        fill: #000;
      }

      .cls-2, .cls-3 {
        fill: #fff;
      }

      .cls-3 {
        stroke-width: 1.5px;
      }

      .cls-6 {
        fill: url(#Unbenannter_Verlauf_6-2);
      }
    </style>
    <radialGradient id="Unbenannter_Verlauf_6" data-name="Unbenannter Verlauf 6" cx="118.43" cy="293.42" fx="118.43" fy="293.42" r="39.46" gradientUnits="userSpaceOnUse">
      <stop offset="0" stop-color="#b61100"/>
      <stop offset=".44" stop-color="#b41000"/>
      <stop offset=".6" stop-color="#ad0f00"/>
      <stop offset=".71" stop-color="#a10d00"/>
      <stop offset=".8" stop-color="#900b00"/>
      <stop offset=".88" stop-color="#7a0700"/>
      <stop offset=".95" stop-color="#600300"/>
      <stop offset="1" stop-color="#460000"/>
    </radialGradient>
    <radialGradient id="Unbenannter_Verlauf_6-2" data-name="Unbenannter Verlauf 6" cx="99.53" cy="429.76" fx="99.53" fy="406.49" r="44.14" xlink:href="#Unbenannter_Verlauf_6"/>
  </defs>
  <g id="export_version">
    <g id="koifish3">
      <path class="cls-1" d="M273.83,189.83s33.86,23.17,42.78,33.86"/>
      <g>
        <path class="cls-2" d="M192.95,46.34s-.75,14.48-5.92,36.67c-10.19,43.74-34.29,83.01-68.5,112.11l-48.34,41.13c-12.6,12.83-21.96,28.47-27.33,45.63h0c-9.12,29.2-11.3,60.15-6.04,90.28,5.64,32.28,18.68,72.75,48.06,108.18,0,0,12.48-3.56,32.08-3.56,0,0,26.74-94.47,19.61-133.68l-16.97-98.44c-.56-3.27-.66-6.61-.3-9.91h0c.81-7.25,3.54-14.14,7.91-19.97l4.97-6.63c2.91-3.88,6.37-7.31,10.27-10.2h0c26.16-19.34,59.11-27.44,91.15-21.79,14.87,2.62,29.69,6.85,40.21,13.66,0,0-45.64-27.05-79.31-43.28-1.63-.79-2.64-2.44-2.57-4.25.58-16.21,3.27-93.47,1.67-95.07"/>
        <path class="cls-1" d="M193.62,47.24s-1.78-44.56-5.35-46.34"/>
        <path class="cls-3" d="M52.16,425.56s-31.43,26.28-51.03-37.89l2.25.67c7.61,2.28,15.57,2.82,23.5,2.25,4.09-.3,9.42.64,15.17,5.13"/>
        <path class="cls-3" d="M135.25,391.1s10.25-12.34,28.07-14.12c17.82-1.78,23.17,5.35,30.3-1.78,0,0-12.03,15.63-16.32,28.13-3.06,8.9-8.84,16.73-16.92,21.56-8.9,5.32-20.18,7.23-29.7-6.4"/>
        <path class="cls-3" d="M82.66,225.65s-15.59-23.35,7.58-57.21c0,0,14.26,26.74,5.35,46.34"/>
        <path class="cls-3" d="M120.55,243.3c41.66.63,49.91-33.86,49.91-33.86-32.08-8.91-51.69,24.95-51.69,24.95"/>
        <path class="cls-1" d="M70.64,491.05s26.74-26.74,60.6-7.13"/>
        <path class="cls-5" d="M44.77,277.16l9.16,3.22c7.09,2.49,12.75,7.78,15.55,14.54h0c1.9,4.58,1.67,9.72-.61,14.12l-4.68,9.03c-1.68,3.25-1.05,7.16,1.58,9.76l3,2.79h0c1.2,1.3,1.94,2.94,2.12,4.67l.22,2.11c.88,8.58-1.35,17.18-6.3,24.35l-3.88,5.61c-1.54,2.23-3.3,4.3-5.26,6.19l-.14.13c-3.34,3.23-5.22,7.61-5.22,12.17h0s.49,6.01.49,6.01c.43,5.29-1.28,10.54-4.79,14.63l-1.24,1.45s-24-70.22,0-130.82Z"/>
        <g>
          <path class="cls-4" d="M130.42,339.91c-1.5-1.57-2.57-3.51-3.09-5.62-1.77-7.09-6.62-12.85-13.29-15.82-3.7-1.64-7.03-4.16-9.62-7.27-3.01-3.61-4.43-8.37-3.89-13.04.65-5.63,2.89-10.94,6.47-15.34,1.01-1.25,1.57-2.82,1.57-4.42v-1.45c0-1.15-.45-2.24-1.26-3.05l-.16-.16c-1.47-1.47-2.62-3.2-3.41-5.13l-.42-1.02c-1.15-2.83-1.56-5.93-1.17-8.96l.16-1.26c.56-4.33,2.69-8.28,5.99-11.12l5.63-4.86c.61-.53,1.36-.81,2.15-.81,1.44,0,3.09,1.03,3.3,2.94,3.41,30.07,14.71,90.34,17.05,102.71l-6.03-6.33Z"/>
          <path class="cls-5" d="M116.09,241.09c1.22,0,2.62.87,2.81,2.49,3.28,28.89,13.84,85.71,16.74,101.09l-4.86-5.1c-1.44-1.51-2.46-3.37-2.97-5.39-1.81-7.24-6.76-13.12-13.57-16.15-3.63-1.61-6.89-4.08-9.44-7.13-2.92-3.51-4.3-8.12-3.77-12.66.64-5.54,2.84-10.75,6.36-15.08,1.09-1.33,1.68-3.02,1.68-4.74v-1.45c0-1.29-.5-2.5-1.41-3.41l-.16-.16c-1.43-1.43-2.53-3.09-3.3-4.96l-.42-1.02c-1.12-2.75-1.51-5.76-1.13-8.71l.16-1.26c.54-4.2,2.61-8.04,5.82-10.81l1.12-.97,4.51-3.89c.52-.45,1.15-.69,1.82-.69M116.09,240.09c-.86,0-1.73.29-2.48.93-1.82,1.57-3.84,3.31-5.63,4.86-3.39,2.92-5.58,7-6.16,11.44l-.16,1.26c-.4,3.12,0,6.3,1.2,9.21l.42,1.02c.81,1.98,2,3.78,3.51,5.29l.16.16c.72.72,1.12,1.69,1.12,2.7v1.45c0,1.5-.52,2.95-1.46,4.11h0c-3.63,4.47-5.91,9.88-6.58,15.59-.56,4.83.88,9.68,4,13.42,2.66,3.19,6.01,5.72,9.8,7.4h0c6.49,2.88,11.29,8.59,13.01,15.48.55,2.19,1.66,4.21,3.22,5.84l6.18,6.48c.09.1.2.14.31.14.25,0,.49-.22.43-.52-1.95-10.28-13.63-72.44-17.08-102.89-.23-2.07-1.98-3.38-3.8-3.38h0Z"/>
        </g>
        <path class="cls-5" d="M102.17,327.07h0c-3.12,0-5.22,3.19-3.99,6.05l2.75,6.43,1.51,4.49c.83,2.46,2.43,4.58,4.56,6.04l2.84,1.95s3.56,3.56,8.35.58c.05-.03.11-.08.19-.14,2.47-2.03,2.96-5.63,1.32-8.37l-2.4-4.01c-.22-.36-.45-.72-.7-1.06l-5.12-7.16c-2.15-3.01-5.62-4.8-9.32-4.8Z"/>
        <g>
          <path class="cls-6" d="M62.17,445.51l1.77-4.89c2.15-5.94,6.84-10.56,12.85-12.68l6.69-2.36.75-.09c8.56-1.06,16-6.58,19.42-14.41l6.19-8.74c4.21-5.95,9.46-10.98,15.59-14.97l11.46-7.62c-1.35,10.81-18.2,89.74-19.64,96.48-1.62-.2-3.43-.31-5.38-.31-11.01,0-24.19,3.27-26.47,3.85l-23.22-34.26Z"/>
          <path class="cls-5" d="M136.24,380.78c-1.76,11.58-13.04,65.22-19.39,94.9-1.52-.17-3.19-.26-4.99-.26-10.61,0-23.2,3.01-26.26,3.78l-22.88-33.76,1.69-4.65c2.1-5.8,6.68-10.31,12.55-12.38l6.64-2.34.69-.09c8.72-1.08,16.3-6.69,19.79-14.66l6.16-8.7c4.17-5.89,9.38-10.89,15.47-14.85l10.53-7M137.48,378.76l-12.32,8.19c-6.16,4.01-11.5,9.13-15.73,15.1l-6.22,8.78c-3.35,7.73-10.6,13.12-19.04,14.16l-.8.1-6.74,2.37c-6.13,2.16-10.96,6.92-13.16,12.98l-1.86,5.13,23.57,34.77s14.58-3.93,26.69-3.93c2.02,0,3.97.11,5.77.36,0,0,19.84-92.68,19.84-98.03h0Z"/>
        </g>
      </g>
    </g>
  </g>
</svg>