<?xml version="1.0" encoding="UTF-8"?>
<svg id="Ebene_2" data-name="Ebene 2" xmlns="http://www.w3.org/2000/svg" xmlns:xlink="http://www.w3.org/1999/xlink" viewBox="0 0 838 995.63">
  <defs>
    <style>
      .cls-1 {
        fill: #000;
      }

      .cls-1, .cls-2 {
        stroke-width: 0px;
      }

      .cls-2 {
        fill: url(#Unbenannter_Verlauf_85);
      }
    </style>
    <linearGradient id="Unbenannter_Verlauf_85" data-name="Unbenannter Verlauf 85" x1=".5" y1="497.64" x2="837.5" y2="497.64" gradientUnits="userSpaceOnUse">
      <stop offset="0" stop-color="#b61100"/>
      <stop offset=".16" stop-color="#ab0f00"/>
      <stop offset=".43" stop-color="#900b00"/>
      <stop offset=".78" stop-color="#640400"/>
      <stop offset="1" stop-color="#460000"/>
    </linearGradient>
  </defs>
  <g id="Ebene_7" data-name="Ebene 7">
    <g>
      <path class="cls-2" d="M.7,785.89h-.2L1.83,236.14l15.35-7.74c3.14-1.59,6.44-2.88,9.81-3.84l8.98-2.57c2.62-.75,5.08-1.95,7.31-3.56l22.82-16.48,10.31-8.12c6.13-4.83,12.88-8.69,20.08-11.47l20.11-7.78,37.48-8.55,23.36-3.27c.79-.11,1.54-.39,2.23-.82l15.45-9.74,11.42-13.33c2.12-2.47,4.81-4.38,7.79-5.52l13.29-5.08,45.64-9.58c2.13-.45,4.32-.68,6.49-.68h2.23c5.22,0,10.28-1.97,14.23-5.55l14.83-13.44,6.28-6.6c1.18-1.24,2.67-2.1,4.3-2.48l9.49-2.22c1.75-.41,3.42-1.25,4.82-2.42l1.34-1.12c2.23-1.87,5.03-2.9,7.88-2.9.83,0,1.66.09,2.48.26l1.97.41c1.57.33,3.17.5,4.77.5,3.97,0,7.93-1.04,11.43-3l16.98-9.52,22.84-12,51.08-27.6c3.99-2.16,8.22-3.83,12.57-4.97l19.56-5.14,31.41-16.5c2.96-1.55,6.13-2.43,9.44-2.59l9.11-.46c2.06-.1,4.14-.16,6.2-.16,11.19,0,22.35,1.52,33.17,4.51l3.21.89c5.52,1.53,10.97,3.52,16.19,5.94l26.87,12.42c4.06,1.88,8.35,3.06,12.76,3.52l1.12.12c5.55.58,10.77,2.84,15.1,6.54l19.39,16.55,52.25,42.88,19.71,22.1c2.85,3.2,4.03,7.66,3.16,11.94l-3.25,15.91c-.16.76-.05,1.57.31,2.26l8.83,17.24c1.35,2.64,2.07,5.62,2.07,8.62v47.35c0,2-.16,4-.47,5.97l-4.42,27.65v13.12c0,3.92,1.16,7.66,3.37,10.82l9.69,13.89c3.33,4.77,7.29,9.02,11.77,12.62l21.06,16.92,13.01,13.68,8.92,10.41c3.63,4.24,5.64,9.72,5.64,15.42v9.71c0,4.2-1.18,8.26-3.42,11.74l-21.06,32.81-1.43,15c-.13,1.35-.7,2.62-1.62,3.58l-11.61,12.2-7.07,28.24c-.73,2.92-1.92,5.65-3.55,8.14l-15.46,23.62-11.68,14.02,10.21,10.72,4.29,1c6.93,1.62,13.42,4.57,19.27,8.78l22.11,15.89,34.08,34.1v8.38c0,3.06-.61,6.02-1.81,8.8l-13.26,30.72c-1.75,4.04-3.58,5.58-8.38,8.94l-8.19,5.17-.04.04c-3.17,3.32-6.37,5.03-6.4,5.05l-.07.04-1.01,1.06c-2.6,2.75-4.03,4.27-7.01,5.49l-23.7,9.68-45.73,20.59-50.68,25.76-19.03,16.36c-11.26,9.68-21.5,20.7-30.44,32.75l-12.04,16.23c-.55.74-1.36,1.25-2.27,1.42l-.45.08.02.15-96.83,33.81c-.67.23-1.36.41-2.06.53l-63.08,11.01c-15.94,2.78-31.35,9.41-44.56,19.16l-49.63,36.62c-1.48,1.1-3.13,1.87-4.91,2.29l-75.39,18.1c-.31.07-.61.16-.91.25l-84.48,26.22c-2.38.74-4.56,2.1-6.32,3.93l-13.84,14.5c-1.99,2.09-4.63,3.4-7.43,3.69l-60.98,6.39-42.08,5.51c-6.93.91-13.51,3.21-19.57,6.83l-13.88,8.31-20.53,11.58.2-208.88Z"/>
      <path class="cls-1" d="M544.98,1c11.15,0,22.26,1.51,33.04,4.49l3.22.89c5.49,1.52,10.92,3.51,16.12,5.91l26.87,12.42c4.11,1.9,8.45,3.1,12.92,3.57l1.12.12c5.45.57,10.58,2.79,14.82,6.42l19.4,16.56,52.18,42.83,19.71,22.09c2.75,3.08,3.89,7.38,3.04,11.51l-3.25,15.91c-.18.88-.05,1.79.35,2.58l8.83,17.24c1.32,2.57,2.01,5.47,2.01,8.39v47.35c0,1.97-.16,3.95-.47,5.89l-4.42,27.65v.08s-.01.08-.01.08v13.04c0,4.02,1.2,7.86,3.46,11.1l9.69,13.89c3.36,4.81,7.35,9.09,11.87,12.72l21,16.87,13,13.65,8.92,10.41c3.56,4.15,5.52,9.51,5.52,15.1v9.71c0,4.1-1.15,8.07-3.34,11.47l-20.99,32.71-.13.2-.02.24-1.42,14.88c-.12,1.24-.64,2.41-1.48,3.29l-11.52,12.11-.18.19-.06.26-7.04,28.11c-.72,2.86-1.89,5.55-3.48,7.99l-15.43,23.58-11.39,13.68-.57.68.61.65,9.8,10.29.21.22.29.07,4.15.97c6.87,1.6,13.29,4.53,19.09,8.7l22.05,15.85,33.93,33.95v8.17c0,2.99-.6,5.88-1.77,8.6l-13.26,30.72c-1.7,3.94-3.4,5.36-8.17,8.7l-8.16,5.15-.11.07-.09.09c-3.1,3.26-6.24,4.93-6.27,4.95l-.15.08-.11.12c-.33.35-.65.69-.95,1-2.64,2.79-3.96,4.19-6.83,5.37l-23.74,9.7-45.75,20.6-50.61,25.73-.11.05-.09.08-18.99,16.32c-11.29,9.7-21.56,20.75-30.52,32.83l-12.04,16.23c-.48.64-1.17,1.08-1.96,1.22l-.9.17.02.22-96.45,33.68c-.65.22-1.31.39-1.98.51l-63.08,11.01c-16.02,2.8-31.5,9.45-44.77,19.25l-49.63,36.62c-1.43,1.06-3.02,1.8-4.73,2.21l-75.39,18.1c-.32.08-.63.16-.94.26l-84.48,26.22c-2.46.76-4.72,2.17-6.53,4.07l-13.84,14.5c-1.91,2-4.44,3.26-7.12,3.54l-61,6.39-42.07,5.51c-6.99.92-13.64,3.24-19.76,6.9l-13.86,8.3-19.79,11.16.2-207.52v-1s-.2,0-.2,0L2.32,236.44l15.08-7.6c3.12-1.57,6.39-2.85,9.72-3.81l8.98-2.57c2.68-.77,5.19-1.99,7.47-3.64l22.86-16.51,10.29-8.11c6.09-4.8,12.8-8.63,19.95-11.4l20.04-7.76,37.43-8.55,23.36-3.27c.86-.12,1.68-.42,2.43-.89l15.38-9.7.13-.08.1-.11,11.37-13.28c2.06-2.41,4.69-4.27,7.59-5.38l13.21-5.05,24.41-5.13,21.22-4.46c2.1-.44,4.25-.66,6.39-.66h2.23c5.35,0,10.52-2.02,14.56-5.68l14.83-13.44.03-.02.03-.03,6.25-6.57c1.11-1.17,2.51-1.98,4.05-2.34l9.49-2.22c1.83-.43,3.57-1.3,5.02-2.53l1.34-1.12c2.14-1.8,4.82-2.79,7.56-2.79.8,0,1.59.08,2.37.25l1.97.41c1.6.34,3.24.51,4.87.51,4.06,0,8.1-1.06,11.68-3.06l16.96-9.5,22.87-12.01,51.07-27.59c3.95-2.14,8.15-3.79,12.46-4.93l19.5-5.12.11-.03.1-.05,26.12-13.72,5.24-2.75c2.89-1.52,6-2.37,9.23-2.53l9.11-.46c2.05-.1,4.12-.15,6.18-.15M544.98,0c-2.08,0-4.15.05-6.23.16l-9.11.46c-3.36.17-6.64,1.07-9.65,2.65l-5.24,2.75-26.12,13.72-19.5,5.12c-4.4,1.15-8.65,2.84-12.68,5.01l-51.07,27.59-22.86,12.01-16.98,9.51c-3.46,1.94-7.31,2.94-11.19,2.94-1.56,0-3.12-.16-4.66-.49l-1.97-.41c-.86-.18-1.72-.27-2.58-.27-2.96,0-5.86,1.05-8.2,3.02l-1.34,1.12c-1.35,1.13-2.92,1.92-4.61,2.32l-9.49,2.22c-1.72.4-3.3,1.31-4.55,2.62l-6.25,6.57-14.83,13.44c-3.86,3.5-8.79,5.42-13.89,5.42h-2.23c-2.21,0-4.42.23-6.59.69l-21.22,4.46-24.49,5.15-13.29,5.08c-3.07,1.17-5.81,3.11-7.99,5.66l-11.37,13.28-15.38,9.7c-.62.39-1.31.65-2.03.75l-23.4,3.28-37.55,8.58-20.11,7.78c-7.24,2.8-14.04,6.69-20.21,11.55l-10.29,8.11-22.82,16.48c-2.18,1.58-4.6,2.76-7.16,3.49l-8.98,2.57c-3.4.98-6.72,2.27-9.9,3.88l-15.63,7.88L0,786.39h.2l-.2,209.24,21.29-12.01,13.88-8.31c5.97-3.57,12.55-5.87,19.38-6.76l42.07-5.51,60.98-6.39c2.93-.31,5.66-1.66,7.74-3.84l13.84-14.5c1.7-1.78,3.8-3.09,6.1-3.8l84.48-26.22c.29-.09.58-.17.88-.24l75.39-18.1c1.83-.44,3.55-1.25,5.09-2.38l49.63-36.62c13.23-9.76,28.39-16.28,44.35-19.07l63.08-11.01c.72-.13,1.44-.31,2.14-.55l97.2-33.94v-.09c1-.19,1.93-.74,2.57-1.61l12.04-16.23c8.93-12.04,19.11-23,30.37-32.67l18.99-16.32,50.61-25.73,45.71-20.58,23.7-9.68c3.43-1.4,4.86-3.18,8.13-6.61,0,0,3.27-1.72,6.53-5.15l8.16-5.15c4.9-3.43,6.77-5.01,8.56-9.15l13.26-30.72c1.22-2.83,1.85-5.9,1.85-9v-8.58l-34.28-34.3-22.11-15.89c-5.88-4.23-12.49-7.24-19.45-8.86l-4.15-.97-9.8-10.29,11.43-13.72,15.46-23.62c1.65-2.53,2.88-5.33,3.62-8.29l7.04-28.11,11.52-12.11c.99-1.04,1.61-2.42,1.75-3.88l1.42-14.88,20.99-32.71c2.28-3.55,3.5-7.73,3.5-12.01v-9.71c0-5.81-2.05-11.42-5.76-15.75l-8.94-10.43-13.06-13.72-21.06-16.92c-4.44-3.57-8.37-7.78-11.68-12.51l-9.69-13.89c-2.13-3.06-3.28-6.75-3.28-10.53v-13.04l4.42-27.65c.32-2,.48-4.02.48-6.05v-47.35c0-3.09-.73-6.13-2.12-8.85l-8.83-17.24c-.3-.59-.4-1.27-.26-1.93l3.25-15.91c.91-4.44-.32-9.06-3.28-12.37l-19.77-22.15-52.24-42.88-19.39-16.55c-4.39-3.75-9.73-6.06-15.37-6.65l-1.12-.12c-4.35-.46-8.61-1.63-12.61-3.48l-26.86-12.42c-5.26-2.43-10.7-4.43-16.27-5.97l-3.22-.89c-10.88-3.01-22.07-4.53-33.3-4.53h0Z"/>
    </g>
  </g>
</svg>