<?xml version="1.0" encoding="UTF-8"?>
<svg id="Ebene_2" data-name="Ebene 2" xmlns="http://www.w3.org/2000/svg" viewBox="0 0 482.68 358">
  <defs>
    <style>
      .cls-1 {
        fill: #d19d62;
        stroke: #d19d62;
        stroke-miterlimit: 10;
      }
    </style>
  </defs>
  <g id="Ebene_5" data-name="Ebene 5">
    <path class="cls-1" d="M467.59.5l-36.81,143.38h-173.55l11.26-43.84c10.5,3.35,40.91,9.47,52.52-27.2,0,0-24.26-17.81-49.66,16.08L294.04.5h-14.45l-12.86,50.1c-10.95-38.39-39.04-31.54-39.04-31.54-3.14,35.72,23.12,43.38,35.58,45.01l-43.59,169.8H46.84L106.75.5h-14.45L.64,357.5h14.45l30.45-118.62h172.84l-30.45,118.62h14.45l53.56-208.62h173.55l-53.56,208.62h14.45L482.04.5h-14.45Z"/>
  </g>
</svg>