<?xml version="1.0" encoding="UTF-8"?>
<svg id="Ebene_2" data-name="Ebene 2" xmlns="http://www.w3.org/2000/svg" viewBox="0 0 538.98 539.09">
  <defs>
    <style>
      .cls-1 {
        opacity: .6;
      }

      .cls-2 {
        fill: #000;
      }

      .cls-2, .cls-3 {
        stroke: #ccc;
        stroke-miterlimit: 10;
      }

      .cls-3 {
        fill: none;
      }
    </style>
  </defs>
  <g id="sun">
    <g class="cls-1">
      <path class="cls-2" d="M269.5.5v1h-.51c-1.84,0-3.67.03-5.5.07h-.01c-2.5.05-5,.14-7.48.27-4.4.22-8.77.54-13.11.98-56.75,5.61-108.36,29.01-149.15,64.52-.38.33-.76.66-1.14,1-21.5,18.92-39.95,41.23-54.51,66.09-.2.33-.39.67-.58,1-11.91,20.52-21.17,42.76-27.31,66.24-.09.33-.18.67-.27,1-5.46,21.21-8.39,43.43-8.43,66.31v1c.04,22.89,2.96,45.11,8.42,66.32.09.33.18.67.27,1,6.14,23.48,15.4,45.72,27.3,66.24.19.33.39.67.59,1,14.55,24.85,32.99,47.16,54.47,66.08.38.34.77.68,1.15,1,40.74,35.48,92.26,58.88,148.93,64.54,4.33.44,8.7.77,13.1.99h.04c2.48.13,4.97.22,7.47.27,0,.01.01,0,.01,0,.93.03,1.86.05,2.79.06h.7c.25.01.49.01.74.01s.52.01.78,0h.02s0,0,0,0h.01c.23.01.46.01.69.01h.51v1h-.02c-.41,0-.82,0-1.23-.01-.01.01-.02,0-.03,0-.25.01-.5,0-.75,0s-.52,0-.78-.01h-.55c-6.8-.08-13.56-.42-20.26-1-57.2-4.94-110.69-27.8-153.9-65.86-.38-.33-.76-.66-1.13-1-3.94-3.51-7.8-7.15-11.56-10.91-16.73-16.73-30.98-35.26-42.57-55.17-.19-.33-.39-.67-.58-1-11.97-20.77-21.07-43.02-27.06-66.24-.1-.33-.18-.66-.26-1-5.45-21.41-8.28-43.65-8.32-66.32v-1c.04-22.66,2.87-44.9,8.33-66.31.08-.34.16-.67.25-1,6-23.22,15.1-45.47,27.08-66.24.19-.33.38-.67.58-1,11.59-19.89,25.83-38.42,42.55-55.14,3.78-3.78,7.65-7.43,11.61-10.95.37-.34.74-.67,1.12-1C135.3,29.23,188.91,6.37,246.22,1.49c7.7-.66,15.46-.99,23.28-.99Z"/>
      <path class="cls-2" d="M269.5.51v1h-.51c-1.9,0-3.79.05-5.68.13h-.01c-3.18.12-6.34.35-9.49.67-43.14,4.42-83.55,27.02-116.19,65.03-.29.33-.57.67-.85,1-3.17,3.73-6.26,7.6-9.27,11.61-12.39,16.52-22.97,34.83-31.59,54.48-.15.33-.29.66-.44,1-9.02,20.76-15.87,43.01-20.39,66.24-.07.33-.13.66-.19,1-4.11,21.4-6.24,43.64-6.27,66.31v1c.03,22.67,2.16,44.91,6.26,66.32.06.34.12.67.19,1,4.52,23.23,11.36,45.48,20.38,66.24.15.34.29.67.44,1,8.63,19.67,19.21,37.99,31.61,54.53,2.99,3.99,6.07,7.84,9.21,11.55.29.33.57.67.86,1,32.61,38,72.97,60.61,116.08,65.07,3.14.33,6.3.56,9.48.69,0,.01.01,0,.01,0,1.14.05,2.28.08,3.43.1h.17c.25.01.49.01.74.01.1,0,.2.01.29.01h.63c.09.01.18.01.27.01h.83v1h-.55c-.19,0-.39,0-.58-.01h-.56c-.11,0-.23-.01-.34-.01-.26,0-.52,0-.78-.01h-.14c-4.99-.09-9.95-.43-14.88-1-3.02-.35-6.04-.79-9.04-1.32-39.48-6.95-76.26-29.19-106.37-64.54-.29-.33-.57-.67-.85-1-2.97-3.52-5.88-7.17-8.71-10.95-12.54-16.71-23.22-35.24-31.91-55.13-.14-.33-.29-.66-.43-1-8.99-20.77-15.81-43.02-20.31-66.24-.07-.33-.13-.67-.19-1-4.09-21.42-6.21-43.65-6.24-66.32v-1c.03-22.66,2.15-44.9,6.25-66.31.06-.34.12-.67.19-1,4.51-23.23,11.33-45.47,20.32-66.24.15-.34.29-.67.44-1,8.68-19.88,19.36-38.38,31.88-55.08,2.85-3.8,5.77-7.47,8.76-11.01.28-.33.56-.67.85-1C166.48,31.95,203.33,9.71,242.89,2.82c3.06-.54,6.13-.98,9.22-1.33,5.75-.65,11.55-.98,17.39-.98Z"/>
      <path class="cls-2" d="M269.5.52v1h-.02c-.16,0-.33,0-.49.01-2.11.01-4.2.12-6.28.33h-.01c-30.87,3.12-59,27.29-80.9,65.48-.19.33-.38.66-.57,1-10.73,18.92-19.94,41.23-27.21,66.09-.1.33-.19.67-.29,1-5.95,20.52-10.57,42.76-13.63,66.24-.05.33-.09.66-.14,1-2.73,21.21-4.19,43.43-4.21,66.31v1c.02,22.89,1.48,45.11,4.2,66.32.05.33.09.67.14,1,3.06,23.48,7.68,45.72,13.62,66.24.09.33.19.67.29,1,7.26,24.85,16.46,47.15,27.18,66.08.19.34.38.67.57,1,21.88,38.18,49.97,62.36,80.81,65.54.01.01.01,0,.01,0,1.56.17,3.13.27,4.71.32.07.01.14.01.2.01.1,0,.2.01.29.01.24,0,.48.01.72.01h.5c.17,0,.34,0,.51,0v1h-.02c-.18,0-.35,0-.52,0h-.01c-.15,0-.3,0-.45,0h-.03c-.22,0-.44-.01-.66-.01-.11,0-.23-.01-.34-.01-.07,0-.15,0-.22-.01-3.26-.1-6.5-.44-9.72-1-.58-.1-1.17-.21-1.76-.33h-.04c-.69-.14-1.39-.29-2.08-.46-27.17-6.3-52.5-28.77-73.13-65.07-.19-.33-.38-.66-.57-1-1.99-3.54-3.93-7.21-5.83-11.01-8.35-16.69-15.46-35.2-21.25-55.07-.1-.33-.2-.66-.29-1-5.99-20.77-10.54-43.01-13.55-66.24-.04-.33-.08-.67-.13-1-2.72-21.41-4.13-43.65-4.15-66.32v-1c.02-22.67,1.44-44.9,4.16-66.31.05-.33.09-.67.13-1,3.01-23.22,7.57-45.47,13.56-66.24.09-.34.19-.67.29-1,5.78-19.84,12.89-38.32,21.23-54.99,1.91-3.83,3.88-7.53,5.89-11.1.18-.33.37-.67.56-1C201.23,31.02,226.6,8.56,253.81,2.31c.73-.17,1.46-.32,2.19-.47.65-.13,1.29-.24,1.94-.35,3.83-.65,7.68-.97,11.56-.97Z"/>
      <path class="cls-2" d="M269.49,538.54c-18.18,0-35.21-28.06-47.95-79.02-12.69-50.75-19.68-118.22-19.68-189.98s6.99-139.23,19.68-189.98C234.28,28.6,251.31.54,269.49.54v1c-36.74,0-66.62,120.22-66.62,268s29.89,268,66.62,268v1Z"/>
      <rect class="cls-2" x="268.99" y="1.05" width="1" height="537"/>
      <path class="cls-2" d="M337.11,268.98v1c-.01,22.67-.72,44.91-2.08,66.32-.02.34-.04.67-.07,1-1.49,23.23-3.76,45.47-6.76,66.24-.05.34-.1.67-.15,1-2.89,19.84-6.44,38.32-10.61,55-.96,3.82-1.94,7.52-2.94,11.08-.09.34-.19.67-.28,1-10.63,37.35-23.79,60.07-37.91,65.6-.21.09-.41.17-.61.23-.02.02-.05.02-.07.03-.03.01-.07.03-.1.04-1.44.5-2.88.82-4.34.96-.56.05-1.13.08-1.7.08v-1h.01c.16,0,.33,0,.49-.01.37-.01.73-.03,1.1-.07,16.09-1.53,30.79-26.12,42.12-65.86.1-.33.19-.66.28-1,5.34-18.92,9.92-41.23,13.54-66.08.05-.33.1-.67.14-1,2.96-20.52,5.26-42.76,6.78-66.24.03-.33.05-.66.07-1,1.36-21.21,2.08-43.43,2.09-66.32v-1c-.01-22.88-.74-45.1-2.1-66.31-.02-.33-.04-.67-.06-1-1.53-23.48-3.84-45.72-6.8-66.24-.05-.33-.09-.67-.14-1-3.62-24.86-8.21-47.17-13.56-66.09-.09-.34-.19-.67-.28-1-11.45-40.08-26.34-64.72-42.62-65.74-.04-.01-.07-.01-.11-.01-.03,0-.06-.01-.09-.01-.08,0-.16,0-.24,0h-.12c-.09-.01-.17-.01-.25,0-.08-.01-.16-.01-.25-.01V.56h.01c.28,0,.56.01.84.02.04,0,.07,0,.11.01.04,0,.08,0,.12.01,1.55.09,3.08.39,4.61.89.17.05.35.11.52.18.04.01.08.02.12.04.18.06.36.13.54.21h.02c14.08,5.58,27.19,28.23,37.79,65.42.1.33.19.66.29,1,1.01,3.61,2.01,7.36,2.98,11.24,4.16,16.64,7.7,35.06,10.59,54.85.05.33.1.66.14,1,3.01,20.76,5.29,43.01,6.78,66.24.03.33.05.66.07,1,1.37,21.41,2.08,43.64,2.09,66.31Z"/>
      <path class="cls-2" d="M404.24,268.98v1c-.02,22.67-1.43,44.91-4.16,66.32-.04.33-.08.67-.13,1-2.99,23.22-7.54,45.47-13.54,66.24-.09.34-.19.67-.28,1-5.79,19.89-12.91,38.4-21.27,55.11-1.89,3.78-3.83,7.44-5.81,10.97-.19.34-.38.67-.56,1-20.68,36.39-46.07,58.9-73.31,65.16-.73.17-1.46.32-2.19.47-.42.08-.84.16-1.25.23-2.89.52-5.79.85-8.71,1-1.18.06-2.36.09-3.54.09v-1h.01c.16,0,.33,0,.49-.01.98,0,1.97-.03,2.95-.08,1.12-.06,2.25-.14,3.37-.26,30.89-3.12,59.05-27.34,80.96-65.6.19-.33.38-.66.57-1,10.71-18.93,19.91-41.23,27.17-66.08.1-.33.19-.67.29-1,5.94-20.52,10.55-42.76,13.61-66.24.05-.33.09-.67.13-1,2.73-21.21,4.18-43.43,4.2-66.32v-1c-.03-22.88-1.49-45.1-4.22-66.31-.04-.33-.08-.67-.13-1-3.07-23.49-7.69-45.72-13.64-66.24-.1-.33-.19-.67-.29-1-7.27-24.86-16.49-47.17-27.23-66.09-.19-.34-.38-.67-.57-1C335.29,29.21,307.19,5.07,276.38,1.92h-.02c-1.61-.16-3.23-.27-4.85-.32-.1-.01-.19-.01-.29-.01h-.35c-.17-.01-.35-.01-.52-.01-.08,0-.16,0-.24,0-.04,0-.08,0-.12,0-.09,0-.17,0-.25,0h-.25V.57h.01c.15,0,.29,0,.44,0,.13,0,.27,0,.4,0h.11c.15,0,.29,0,.44.01.1-.01.19,0,.29,0,.11,0,.22,0,.34.01,3.09.09,6.16.39,9.21.89.83.13,1.66.28,2.49.45h.03c.7.14,1.4.3,2.09.46,27.13,6.29,52.43,28.73,73.04,64.94.19.33.38.66.57,1,2.01,3.58,3.99,7.3,5.91,11.15,8.33,16.66,15.43,35.12,21.22,54.94.09.33.19.66.29,1,6,20.77,10.56,43.01,13.56,66.24.05.33.09.67.13,1,2.74,21.41,4.16,43.64,4.18,66.31Z"/>
      <path class="cls-2" d="M471.36,268.98v1c-.02,22.67-2.14,44.91-6.22,66.32-.06.33-.13.67-.2,1-4.49,23.22-11.31,45.47-20.29,66.24-.14.34-.29.67-.43,1-8.7,19.92-19.39,38.47-31.94,55.2-2.81,3.75-5.69,7.38-8.65,10.88-.27.33-.56.67-.85,1-30.18,35.47-67.08,57.76-106.69,64.65-2.72.48-5.46.89-8.2,1.21-4.26.51-8.55.85-12.86,1-1.85.07-3.7.1-5.55.1v-1h.51c1.67,0,3.34-.04,5.01-.1.23-.01.47-.02.7-.03,3.17-.12,6.34-.35,9.48-.67,43.19-4.43,83.63-27.08,116.29-65.16.29-.33.57-.67.86-1,3.12-3.69,6.18-7.51,9.15-11.48,12.42-16.56,23.01-34.91,31.65-54.6.14-.33.29-.67.43-1,9.01-20.76,15.85-43.01,20.36-66.24.07-.33.14-.67.2-1,4.09-21.41,6.22-43.65,6.24-66.32v-1c-.04-22.67-2.17-44.9-6.28-66.31-.06-.33-.13-.67-.19-1-4.53-23.23-11.38-45.48-20.41-66.24-.15-.33-.29-.67-.44-1-8.62-19.62-19.18-37.9-31.56-54.41-3.03-4.04-6.14-7.93-9.33-11.68-.28-.33-.56-.67-.85-1C368.71,29.43,328.39,6.86,285.34,2.4c-3.16-.33-6.33-.56-9.52-.69-1.19-.05-2.38-.08-3.58-.1-.24-.01-.49-.01-.73-.01-.1-.01-.19-.01-.29-.01h-.35c-.14,0-.29-.01-.43,0-.15-.01-.3-.01-.45-.01h-.51V.58h.46s.03,0,.05.01h.03c.14-.01.29,0,.43,0h.24c.07-.01.13,0,.2,0,.1-.01.19,0,.29,0,.11,0,.22,0,.34.01.25,0,.51,0,.77.01,4.67.08,9.32.37,13.94.88,3.39.36,6.76.84,10.12,1.44,39.43,6.94,76.17,29.13,106.26,64.41.29.33.58.67.85,1,3.02,3.56,5.95,7.26,8.82,11.08,12.51,16.68,23.17,35.16,31.86,55.01.14.33.29.67.43,1,8.99,20.77,15.83,43.01,20.33,66.24.08.33.14.66.2,1,4.1,21.41,6.22,43.64,6.26,66.31Z"/>
      <path class="cls-2" d="M538.48,268.98v1c-.03,22.67-2.85,44.91-8.3,66.32-.07.33-.16.67-.25,1-5.99,23.22-15.07,45.47-27.04,66.24-.19.33-.38.67-.57,1-11.61,19.94-25.87,38.51-42.63,55.27-3.73,3.73-7.55,7.33-11.45,10.81-.37.33-.75.67-1.13,1-42.97,37.89-96.14,60.74-153.01,65.86-5.59.51-11.23.84-16.89,1-2.57.07-5.15.11-7.73.11v-1h.51c1.85,0,3.7-.03,5.54-.07.49,0,.99-.02,1.48-.04,2-.05,3.99-.13,5.98-.23,4.4-.22,8.77-.54,13.1-.98,56.82-5.62,108.48-29.06,149.3-64.65.38-.33.76-.66,1.14-1,21.47-18.93,39.89-41.23,54.43-66.08.2-.33.39-.67.58-1,11.89-20.52,21.14-42.76,27.27-66.24.09-.33.18-.67.27-1,5.45-21.21,8.37-43.43,8.4-66.32v-1c-.05-22.88-2.99-45.1-8.46-66.31-.08-.33-.17-.67-.26-1-6.16-23.49-15.43-45.72-27.35-66.24-.19-.34-.38-.67-.58-1-14.57-24.86-33.04-47.17-54.56-66.09-.38-.34-.77-.68-1.15-1C404.41,31.93,352.95,8.59,296.35,2.93c-4.33-.44-8.7-.77-13.1-.99h-.03c-2.5-.13-5.01-.22-7.52-.27-1.15-.04-2.31-.05-3.46-.06-.24-.01-.49-.01-.73-.01-.31,0-.62-.01-.93,0h-.03c-.19-.01-.37-.01-.56-.01h-.51V.59h.78c.1,0,.21,0,.31.01.32-.01.64,0,.95,0,.25,0,.51,0,.77.01,6.5.06,12.95.36,19.36.88,57.68,4.67,111.66,27.55,155.2,65.85.38.33.76.66,1.13,1,3.99,3.55,7.9,7.23,11.71,11.04,16.69,16.69,30.92,35.18,42.49,55.05.2.33.39.66.58,1,12,20.76,21.1,43.01,27.11,66.24.09.33.18.67.26,1,5.46,21.41,8.3,43.64,8.35,66.31Z"/>
    </g>
    <g class="cls-1">
      <g>
        <path class="cls-2" d="M291.65,1.54h-45.43c7.7-.66,15.46-.99,23.28-.99v.06c.28,0,.56.01.84.02h.11c.08,0,.16,0,.24.01.07-.01.13,0,.2,0,.1-.01.19,0,.29,0,.11,0,.22,0,.34.01.25,0,.51,0,.77.01,6.5.06,12.95.36,19.36.88Z"/>
        <path class="cls-2" d="M447.98,68.39H90.9c.37-.34.74-.67,1.12-1h354.83c.38.33.76.66,1.13,1Z"/>
        <path class="cls-2" d="M502.76,135.48H36.16c.19-.33.38-.67.58-1h465.44c.2.33.39.66.58,1Z"/>
        <path class="cls-2" d="M530.13,202.72H8.83c.08-.34.16-.67.25-1h520.79c.09.33.18.67.26,1Z"/>
        <rect class="cls-2" x=".5" y="269.03" width="537.98" height="1"/>
        <path class="cls-2" d="M530.18,336.35c-.07.33-.16.67-.25,1H9.08c-.1-.33-.18-.66-.26-1h521.36Z"/>
        <path class="cls-2" d="M502.89,403.59c-.19.33-.38.67-.57,1H36.72c-.19-.33-.39-.67-.58-1h466.75Z"/>
        <path class="cls-2" d="M448.24,470.67c-.37.33-.75.67-1.13,1H91.98c-.38-.33-.76-.66-1.13-1h357.39Z"/>
        <g>
          <path class="cls-3" d="M502.89,403.59c-.19.33-.38.67-.57,1"/>
          <path class="cls-2" d="M270.89.64c-.07,0-.13-.01-.2,0-.08-.01-.16-.01-.24-.01.15,0,.29,0,.44.01Z"/>
          <path class="cls-2" d="M294.1,537.53c-5.59.51-11.23.84-16.89,1h-11.07c-6.8-.08-13.56-.42-20.26-1h48.22Z"/>
        </g>
      </g>
    </g>
  </g>
</svg>