<?xml version="1.0" encoding="UTF-8"?>
<svg id="Ebene_2" data-name="Ebene 2" xmlns="http://www.w3.org/2000/svg" xmlns:xlink="http://www.w3.org/1999/xlink" viewBox="0 0 508 508">
  <defs>
    <style>
      .cls-1 {
        fill: #000;
      }

      .cls-1, .cls-2 {
        stroke-width: 0px;
      }

      .cls-3 {
        stroke-width: 4px;
      }

      .cls-3, .cls-4 {
        stroke-miterlimit: 10;
      }

      .cls-3, .cls-4, .cls-5 {
        fill: none;
        stroke: #000;
      }

      .cls-4, .cls-5 {
        stroke-linecap: round;
        stroke-width: 5px;
      }

      .cls-2 {
        fill: url(#Unbenannter_Verlauf_100);
      }

      .cls-5 {
        stroke-linejoin: round;
      }
    </style>
    <radialGradient id="Unbenannter_Verlauf_100" data-name="Unbenannter Verlauf 100" cx="254" cy="254" fx="254" fy="254" r="251.5" gradientUnits="userSpaceOnUse">
      <stop offset="0" stop-color="#b61100"/>
      <stop offset=".19" stop-color="#b11000"/>
      <stop offset=".38" stop-color="#a50e00"/>
      <stop offset=".57" stop-color="#910b00"/>
      <stop offset=".76" stop-color="#740700"/>
      <stop offset=".95" stop-color="#4f0100"/>
      <stop offset="1" stop-color="#460000"/>
    </radialGradient>
  </defs>
  <g id="eye_close">
    <g>
      <path class="cls-2" d="M254,505.5c-67.18,0-130.33-26.16-177.84-73.66C28.66,384.33,2.5,321.18,2.5,254S28.66,123.66,76.16,76.16C123.67,28.66,186.82,2.5,254,2.5s130.33,26.16,177.84,73.66c47.5,47.5,73.66,110.66,73.66,177.84s-26.16,130.33-73.66,177.84c-47.5,47.5-110.66,73.66-177.84,73.66Z"/>
      <path class="cls-1" d="M254,5c33.62,0,66.23,6.58,96.92,19.57,29.65,12.54,56.28,30.5,79.15,53.36,22.87,22.87,40.82,49.5,53.36,79.15,12.98,30.69,19.57,63.3,19.57,96.92s-6.58,66.23-19.57,96.92c-12.54,29.65-30.5,56.28-53.36,79.15-22.87,22.87-49.5,40.82-79.15,53.36-30.69,12.98-63.3,19.57-96.92,19.57s-66.23-6.58-96.92-19.57c-29.65-12.54-56.28-30.5-79.15-53.36-22.87-22.87-40.82-49.5-53.36-79.15-12.98-30.69-19.57-63.3-19.57-96.92s6.58-66.23,19.57-96.92c12.54-29.65,30.5-56.28,53.36-79.15,22.87-22.87,49.5-40.82,79.15-53.36,30.69-12.98,63.3-19.57,96.92-19.57M254,0C113.72,0,0,113.72,0,254s113.72,254,254,254,254-113.72,254-254S394.28,0,254,0h0Z"/>
    </g>
    <g id="Ebene_5" data-name="Ebene 5">
      <path class="cls-5" d="M73.81,416.65s-39.19-43.75,3.79-120.32"/>
      <path class="cls-5" d="M203.8,467.16s-54.94-56.14-17.95-140.35"/>
      <path class="cls-5" d="M334.54,463.42s-66.02-44.78-32.29-136.61"/>
      <path class="cls-4" d="M466.5,421s-65.96-62.75-62.89-121.66"/>
      <path class="cls-3" d="M503.65,230.61c-58.57,60.41-151.81,97.92-259.6,97.92-96.49,0-182.77-30.58-241.87-80.52,0,0,2.72-226.26,252.37-245.84"/>
    </g>
  </g>
</svg>