<?xml version="1.0" encoding="UTF-8"?>
<svg id="Ebene_2" data-name="Ebene 2" xmlns="http://www.w3.org/2000/svg" xmlns:xlink="http://www.w3.org/1999/xlink" viewBox="0 0 550.31 550.8">
  <defs>
    <style>
      .cls-1 {
        fill: url(#Unbenannter_Verlauf_5-6);
      }

      .cls-1, .cls-2, .cls-3, .cls-4, .cls-5, .cls-6, .cls-7, .cls-8, .cls-9, .cls-10, .cls-11, .cls-12, .cls-13, .cls-14, .cls-15, .cls-16 {
        stroke-width: 0px;
      }

      .cls-2 {
        fill: url(#Unbenannter_Verlauf_5-7);
      }

      .cls-3 {
        fill: url(#Unbenannter_Verlauf_5);
      }

      .cls-4 {
        fill: url(#Unbenannter_Verlauf_41-9);
      }

      .cls-5 {
        fill: url(#Unbenannter_Verlauf_5-10);
      }

      .cls-6 {
        fill: url(#Unbenannter_Verlauf_41-6);
      }

      .cls-7 {
        fill: url(#Unbenannter_Verlauf_5-9);
      }

      .cls-8 {
        fill: url(#Unbenannter_Verlauf_41-5);
      }

      .cls-9 {
        fill: url(#Unbenannter_Verlauf_41-7);
      }

      .cls-17 {
        fill: url(#Unbenannter_Verlauf_5-3);
        stroke: url(#Unbenannter_Verlauf_41-3);
      }

      .cls-17, .cls-18 {
        stroke-miterlimit: 10;
      }

      .cls-10 {
        fill: url(#Unbenannter_Verlauf_41-10);
      }

      .cls-18 {
        fill: url(#Unbenannter_Verlauf_5-2);
        stroke: url(#Unbenannter_Verlauf_41-2);
      }

      .cls-11 {
        fill: url(#Unbenannter_Verlauf_41-8);
      }

      .cls-12 {
        fill: url(#Unbenannter_Verlauf_41-4);
      }

      .cls-13 {
        fill: url(#Unbenannter_Verlauf_5-5);
      }

      .cls-14 {
        fill: url(#Unbenannter_Verlauf_5-4);
      }

      .cls-15 {
        fill: url(#Unbenannter_Verlauf_5-8);
      }

      .cls-16 {
        fill: url(#Unbenannter_Verlauf_41);
      }
    </style>
    <radialGradient id="Unbenannter_Verlauf_5" data-name="Unbenannter Verlauf 5" cx="291.55" cy="324.88" fx="291.55" fy="324.88" r="139.97" gradientUnits="userSpaceOnUse">
      <stop offset=".57" stop-color="#b61100"/>
      <stop offset=".74" stop-color="#b41000"/>
      <stop offset=".8" stop-color="#ad1000"/>
      <stop offset=".85" stop-color="#a10f00"/>
      <stop offset=".88" stop-color="#900d00"/>
      <stop offset=".91" stop-color="#7a0b00"/>
      <stop offset=".94" stop-color="#5f0800"/>
      <stop offset=".97" stop-color="#3f0500"/>
      <stop offset=".99" stop-color="#1a0200"/>
      <stop offset="1" stop-color="#000"/>
    </radialGradient>
    <radialGradient id="Unbenannter_Verlauf_41" data-name="Unbenannter Verlauf 41" cx="291.55" cy="324.88" fx="291.55" fy="324.88" r="139.97" gradientUnits="userSpaceOnUse">
      <stop offset="0" stop-color="#771313"/>
      <stop offset=".29" stop-color="#741212"/>
      <stop offset=".46" stop-color="#6b1111"/>
      <stop offset=".6" stop-color="#5d0e0e"/>
      <stop offset=".73" stop-color="#490b0b"/>
      <stop offset=".85" stop-color="#2e0707"/>
      <stop offset=".96" stop-color="#0e0202"/>
      <stop offset="1" stop-color="#000"/>
    </radialGradient>
    <radialGradient id="Unbenannter_Verlauf_5-2" data-name="Unbenannter Verlauf 5" cx="356.1" cy="493.97" fx="356.1" fy="493.97" r="69.86" xlink:href="#Unbenannter_Verlauf_5"/>
    <radialGradient id="Unbenannter_Verlauf_41-2" data-name="Unbenannter Verlauf 41" cx="356.53" cy="493.8" fx="356.53" fy="493.8" r="70.38" xlink:href="#Unbenannter_Verlauf_41"/>
    <radialGradient id="Unbenannter_Verlauf_5-3" data-name="Unbenannter Verlauf 5" cx="188.51" cy="412.65" fx="188.51" fy="412.65" r="115.08" xlink:href="#Unbenannter_Verlauf_5"/>
    <radialGradient id="Unbenannter_Verlauf_41-3" data-name="Unbenannter Verlauf 41" cx="188.26" cy="412.48" fx="188.26" fy="412.48" r="115.58" xlink:href="#Unbenannter_Verlauf_41"/>
    <radialGradient id="Unbenannter_Verlauf_5-4" data-name="Unbenannter Verlauf 5" cx="250.15" cy="239.63" fx="250.15" fy="239.63" r="129.19" xlink:href="#Unbenannter_Verlauf_5"/>
    <radialGradient id="Unbenannter_Verlauf_41-4" data-name="Unbenannter Verlauf 41" cx="250.15" cy="239.63" fx="250.15" fy="239.63" r="129.19" xlink:href="#Unbenannter_Verlauf_41"/>
    <radialGradient id="Unbenannter_Verlauf_5-5" data-name="Unbenannter Verlauf 5" cx="280.66" cy="137.66" fx="280.66" fy="137.66" r="153.45" xlink:href="#Unbenannter_Verlauf_5"/>
    <radialGradient id="Unbenannter_Verlauf_41-5" data-name="Unbenannter Verlauf 41" cx="280.66" cy="137.66" fx="280.66" fy="137.66" r="153.45" xlink:href="#Unbenannter_Verlauf_41"/>
    <radialGradient id="Unbenannter_Verlauf_5-6" data-name="Unbenannter Verlauf 5" cx="406.35" cy="266.35" fx="406.35" fy="266.35" r="9.78" xlink:href="#Unbenannter_Verlauf_5"/>
    <radialGradient id="Unbenannter_Verlauf_41-6" data-name="Unbenannter Verlauf 41" cx="406.35" cy="266.35" fx="406.35" fy="266.35" r="9.78" xlink:href="#Unbenannter_Verlauf_41"/>
    <radialGradient id="Unbenannter_Verlauf_5-7" data-name="Unbenannter Verlauf 5" cx="239.76" cy="291.53" fx="239.76" fy="291.53" r="134.01" xlink:href="#Unbenannter_Verlauf_5"/>
    <radialGradient id="Unbenannter_Verlauf_41-7" data-name="Unbenannter Verlauf 41" cx="239.76" cy="291.53" fx="239.76" fy="291.53" r="134.01" xlink:href="#Unbenannter_Verlauf_41"/>
    <radialGradient id="Unbenannter_Verlauf_5-8" data-name="Unbenannter Verlauf 5" cx="137.66" cy="269.41" fx="137.66" fy="269.41" r="153.44" xlink:href="#Unbenannter_Verlauf_5"/>
    <radialGradient id="Unbenannter_Verlauf_41-8" data-name="Unbenannter Verlauf 41" cx="137.66" cy="269.41" fx="137.66" fy="269.41" r="153.44" xlink:href="#Unbenannter_Verlauf_41"/>
    <radialGradient id="Unbenannter_Verlauf_5-9" data-name="Unbenannter Verlauf 5" cx="310.85" cy="250.12" fx="310.85" fy="250.12" r="129.27" xlink:href="#Unbenannter_Verlauf_5"/>
    <radialGradient id="Unbenannter_Verlauf_41-9" data-name="Unbenannter Verlauf 41" cx="310.85" cy="250.12" fx="310.85" fy="250.12" r="129.27" xlink:href="#Unbenannter_Verlauf_41"/>
    <radialGradient id="Unbenannter_Verlauf_5-10" data-name="Unbenannter Verlauf 5" cx="411.8" cy="280.58" fx="411.8" fy="280.58" r="153.86" xlink:href="#Unbenannter_Verlauf_5"/>
    <radialGradient id="Unbenannter_Verlauf_41-10" data-name="Unbenannter Verlauf 41" cx="411.8" cy="280.58" fx="411.8" fy="280.58" r="153.86" xlink:href="#Unbenannter_Verlauf_41"/>
  </defs>
  <g id="Ebene_2-2" data-name="Ebene 2">
    <g id="IKIGAI_sign">
      <g>
        <path class="cls-3" d="M415.15,275.31c-5.06-6.96-10.62-13.52-16.63-19.64-17.53-17.84-38.89-31.91-62.76-40.85-10.3-3.87-21.08-6.78-32.22-8.64-9.3-1.54-18.87-2.35-28.61-2.35s-19.46.82-28.82,2.38c-10.84,1.82-21.34,4.64-31.39,8.37-23.77,8.81-45.08,22.7-62.62,40.33-6.2,6.24-11.95,12.96-17.15,20.09,5.28,7.26,11.11,14.08,17.4,20.42,4.77-7.14,10.14-13.83,16.05-20.01,10.91-11.45,23.65-21.13,37.74-28.6,8.91-4.74,18.36-8.59,28.26-11.42,12.99-3.74,26.73-5.74,40.93-5.74s27.15,1.88,39.81,5.43c10.17,2.83,19.89,6.73,29.05,11.57,14.54,7.67,27.67,17.69,38.81,29.56,5.59,5.92,10.66,12.29,15.19,19.06,15.76,23.5,24.95,51.76,24.95,82.19,0,13.92-1.92,27.39-5.53,40.15-2.78,9.91-6.56,19.38-11.26,28.32,10.67-1.82,21.03-4.61,30.93-8.29,3.75-10.05,6.6-20.54,8.44-31.37,1.61-9.5,2.45-19.25,2.45-29.21,0-38.03-12.25-73.18-33.01-101.76Z"/>
        <path class="cls-16" d="M274.93,204.83c9.54,0,19.12.78,28.45,2.33,10.95,1.82,21.72,4.72,32.04,8.59,23.27,8.72,44.85,22.77,62.4,40.62,5.98,6.09,11.54,12.66,16.53,19.53,21.47,29.55,32.82,64.54,32.82,101.17,0,9.71-.82,19.49-2.44,29.04-1.78,10.47-4.55,20.82-8.24,30.76-9.16,3.37-18.68,5.97-28.34,7.73,4.32-8.51,7.82-17.49,10.41-26.72,3.7-13.07,5.57-26.67,5.57-40.43,0-29.62-8.69-58.24-25.12-82.75-4.57-6.83-9.72-13.29-15.29-19.19-11.31-12.04-24.45-22.05-39.07-29.76-9.31-4.91-19.15-8.83-29.25-11.65-12.95-3.63-26.44-5.46-40.08-5.46s-27.89,1.95-41.21,5.78c-9.84,2.82-19.41,6.69-28.45,11.5-14.16,7.5-26.94,17.19-38,28.79-5.67,5.94-10.87,12.37-15.47,19.13-5.77-5.89-11.15-12.22-16.02-18.85,5.03-6.82,10.62-13.34,16.62-19.39,17.54-17.63,39.06-31.49,62.25-40.09,10.07-3.73,20.57-6.53,31.21-8.32,9.4-1.57,19.04-2.37,28.66-2.37M274.93,203.83c-9.83,0-19.46.82-28.82,2.38-10.84,1.82-21.34,4.64-31.39,8.37-23.77,8.81-45.08,22.7-62.62,40.33-6.2,6.24-11.95,12.96-17.15,20.09,5.28,7.26,11.11,14.08,17.4,20.42,4.77-7.14,10.14-13.83,16.05-20.01,10.91-11.45,23.65-21.13,37.74-28.6,8.91-4.74,18.36-8.59,28.26-11.42,12.99-3.74,26.73-5.74,40.93-5.74s27.15,1.88,39.81,5.43c10.17,2.83,19.89,6.73,29.05,11.57,14.54,7.67,27.67,17.69,38.81,29.56,5.59,5.92,10.66,12.29,15.19,19.06,15.76,23.5,24.95,51.76,24.95,82.19,0,13.92-1.92,27.39-5.53,40.15-2.78,9.91-6.56,19.38-11.26,28.32,10.67-1.82,21.03-4.61,30.93-8.29,3.75-10.05,6.6-20.54,8.44-31.37,1.61-9.5,2.45-19.25,2.45-29.21,0-38.03-12.25-73.18-33.01-101.76-5.06-6.96-10.62-13.52-16.63-19.64-17.53-17.84-38.89-31.91-62.76-40.85-10.3-3.87-21.08-6.78-32.22-8.64-9.3-1.54-18.87-2.35-28.61-2.35h0Z"/>
      </g>
      <path class="cls-18" d="M275.32,525.27c56.92,0,106.34-32.18,131.02-79.35,10.67-1.82,21.03-4.61,30.93-8.29-24.56,65.8-87.98,112.66-162.34,112.66"/>
      <path class="cls-17" d="M274.93,550.3c-74.54,0-138.1-47.1-162.53-113.15-3.68-9.93-6.47-20.29-8.27-30.97-1.61-9.46-2.44-19.19-2.44-29.11,0-38.17,12.34-73.45,33.25-102.07,5.28,7.26,11.11,14.08,17.4,20.42-15.69,23.46-24.85,51.68-24.85,82.03,0,13.95,1.94,27.44,5.55,40.23,2.75,9.8,6.51,19.18,11.15,28.03,24.65,47.28,74.12,79.56,131.13,79.56"/>
      <g>
        <path class="cls-14" d="M398.36,295.1c-.05.05-.12.11-.17.16-17.36,17.07-38.78,30.99-62.51,39.97-10.25,3.89-20.93,6.86-31.91,8.76-9.35,1.63-18.9,2.49-28.59,2.49s-19.8-.84-29.34-2.48c-10.59-1.8-20.85-4.57-30.7-8.21-23.84-8.8-45.21-22.71-62.8-40.38-6.3-6.34-12.12-13.16-17.4-20.42-20.75-28.57-33-63.72-33-101.76,0-9.87.83-19.54,2.4-28.96,9.18-4.82,18.94-8.69,29.14-11.5-3.74,12.96-5.73,26.66-5.73,40.84,0,30.04,8.96,57.97,24.35,81.28,4.82,7.31,10.28,14.18,16.3,20.5,10.97,11.58,23.82,21.37,38.03,28.89,8.91,4.73,18.34,8.58,28.21,11.4,13,3.75,26.73,5.76,40.93,5.76,13.44,0,26.73-1.98,39.48-5.57,10.04-2.83,19.75-6.68,28.92-11.37,14.66-7.5,27.96-17.15,39.03-28.31.29-.26.58-.57.87-.86l14.49,19.76Z"/>
        <path class="cls-12" d="M132.03,134.23c-3.51,12.74-5.28,25.98-5.28,39.39,0,29.24,8.48,57.53,24.51,81.83,4.85,7.35,10.37,14.3,16.41,20.64,11.13,11.74,24.01,21.53,38.29,29.09,9.09,4.83,18.64,8.69,28.4,11.47,13.32,3.85,27.18,5.8,41.21,5.8,13.18,0,26.55-1.89,39.75-5.61,9.96-2.81,19.75-6.66,29.1-11.44,14.81-7.57,28.02-17.15,39.27-28.48.02-.02.04-.03.06-.05l13.29,18.12c-17.45,17.04-38.78,30.62-61.71,39.31-10.38,3.93-21.05,6.87-31.72,8.71-9.4,1.64-18.96,2.47-28.42,2.47s-19.63-.83-29.17-2.46c-10.38-1.77-20.65-4.51-30.52-8.16-23.24-8.58-44.83-22.46-62.44-40.15-6.27-6.31-12.09-13.14-17.3-20.3-21.46-29.56-32.81-64.54-32.81-101.17,0-9.43.77-18.95,2.3-28.3,8.53-4.44,17.53-8.04,26.79-10.71M133.48,132.78c-10.2,2.81-19.96,6.68-29.14,11.5-1.57,9.42-2.4,19.09-2.4,28.96,0,38.03,12.25,73.18,33,101.76,5.28,7.26,11.11,14.08,17.4,20.42,17.59,17.67,38.96,31.58,62.8,40.38,9.84,3.64,20.1,6.4,30.7,8.21,9.54,1.63,19.34,2.48,29.34,2.48s19.23-.86,28.59-2.49c10.97-1.9,21.66-4.87,31.91-8.76,23.73-8.98,45.15-22.9,62.51-39.97.05-.05.12-.11.17-.16l-14.49-19.76c-.29.29-.58.59-.87.86-11.08,11.16-24.37,20.82-39.03,28.31-9.17,4.69-18.88,8.54-28.92,11.37-12.75,3.6-26.05,5.57-39.48,5.57-14.2,0-27.93-2-40.93-5.76-9.87-2.82-19.3-6.67-28.21-11.4-14.21-7.52-27.06-17.31-38.03-28.89-6.02-6.32-11.47-13.19-16.3-20.5-15.39-23.32-24.35-51.25-24.35-81.28,0-14.18,1.99-27.88,5.73-40.84h0Z"/>
      </g>
      <g>
        <path class="cls-13" d="M448.42,173.24c0,38.17-12.34,73.45-33.26,102.07-5.06-6.96-10.62-13.52-16.63-19.64,15.7-23.48,24.86-51.69,24.86-82.05,0-13.89-1.91-27.32-5.51-40.06-2.87-10.24-6.81-20.01-11.71-29.22-24.83-46.72-74.01-78.53-130.61-78.53s-105.47,31.63-130.37,78.12c-11.16,1.8-21.96,4.69-32.29,8.54C137.51,46.77,200.88,0,275.18,0s137.87,46.91,162.4,112.77c3.85,10.33,6.73,21.12,8.56,32.26,1.5,9.18,2.28,18.6,2.28,28.21Z"/>
        <path class="cls-8" d="M275.18,1c35.83,0,70.17,10.89,99.32,31.5,28.51,20.16,50,48.04,62.13,80.61,3.85,10.34,6.72,21.13,8.51,32.08,1.5,9.19,2.27,18.63,2.27,28.04,0,36.33-11.15,71-32.27,100.37-4.68-6.33-9.83-12.4-15.34-18.06,16.08-24.33,24.58-52.64,24.58-81.93,0-13.73-1.87-27.3-5.54-40.33-2.86-10.19-6.83-20.09-11.79-29.42-25.92-48.77-76.31-79.06-131.49-79.06s-104.97,29.96-131.02,78.21c-10.16,1.67-20.22,4.28-29.93,7.75,12.3-31.63,33.48-58.69,61.36-78.36C205.1,11.86,239.41,1,275.18,1M275.18,0C200.88,0,137.51,46.77,112.9,112.47c10.33-3.85,21.13-6.73,32.29-8.54,24.9-46.49,73.95-78.12,130.37-78.12s105.77,31.82,130.61,78.53c4.9,9.21,8.84,18.98,11.71,29.22,3.6,12.74,5.51,26.18,5.51,40.06,0,30.35-9.16,58.57-24.86,82.05,6.01,6.13,11.57,12.69,16.63,19.64,20.92-28.63,33.26-63.91,33.26-102.07,0-9.6-.78-19.02-2.28-28.21-1.83-11.15-4.72-21.93-8.56-32.26C413.04,46.91,349.59,0,275.18,0h0Z"/>
      </g>
      <g>
        <path class="cls-1" d="M415.15,275.31c-.41.58-.83,1.15-1.25,1.71l-16.35-19.89c.33-.49.66-.97.97-1.46,6.01,6.13,11.57,12.69,16.63,19.64Z"/>
        <path class="cls-6" d="M400.69,259.37c4.73,5.05,9.16,10.4,13.23,15.95-.02.03-.04.05-.06.08l-13.17-16.03M398.53,255.67c-.32.49-.65.97-.97,1.46l16.35,19.89c.42-.57.84-1.13,1.25-1.71-5.06-6.96-10.62-13.52-16.63-19.64h0Z"/>
      </g>
      <g>
        <path class="cls-2" d="M344.18,246.63c-1.8-10.99-4.65-21.63-8.42-31.82-8.8-23.82-22.7-45.17-40.37-62.75-6.24-6.2-12.96-11.95-20.09-17.15-7.26,5.28-14.08,11.11-20.42,17.4,7.14,4.76,13.83,10.13,20.01,16.05,11.47,10.93,21.17,23.69,28.64,37.81,4.83,9.1,8.75,18.77,11.59,28.89,3.61,12.79,5.55,26.28,5.55,40.23s-1.96,27.68-5.64,40.58c-2.81,9.83-6.59,19.23-11.28,28.11-7.67,14.61-17.73,27.78-29.65,38.98-5.92,5.59-12.29,10.67-19.06,15.2-23.5,15.76-51.77,24.94-82.19,24.94-13.79,0-27.15-1.88-39.81-5.43,2.75,9.8,6.51,19.18,11.15,28.03,9.45,1.59,19.15,2.42,29.05,2.42,38.03,0,73.18-12.25,101.76-33.01,6.96-5.06,13.52-10.62,19.64-16.63,17.97-17.65,32.11-39.19,41.04-63.27,3.66-9.84,6.46-20.12,8.29-30.72,1.65-9.62,2.52-19.51,2.52-29.6s-.79-19.08-2.29-28.27Z"/>
        <path class="cls-9" d="M275.31,136.15c6.82,5.03,13.34,10.62,19.39,16.62,17.67,17.58,31.55,39.15,40.13,62.39,3.79,10.24,6.6,20.88,8.37,31.63,1.51,9.26,2.28,18.72,2.28,28.11s-.84,19.74-2.5,29.43c-1.8,10.41-4.57,20.68-8.24,30.54-8.71,23.49-22.82,45.25-40.8,62.91-6.09,5.98-12.66,11.54-19.53,16.53-29.55,21.47-64.54,32.82-101.17,32.82-9.52,0-19.07-.78-28.39-2.33-4.27-8.21-7.74-16.85-10.35-25.7,12.43,3.31,25.32,4.99,38.36,4.99,29.63,0,58.25-8.68,82.75-25.11,6.8-4.55,13.26-9.7,19.19-15.3,12.12-11.38,22.16-24.58,29.85-39.24,4.73-8.95,8.55-18.47,11.35-28.31,3.77-13.22,5.68-26.96,5.68-40.85s-1.88-27.37-5.58-40.5c-2.82-10.03-6.75-19.82-11.67-29.09-7.49-14.17-17.19-26.97-28.83-38.06-5.94-5.68-12.37-10.88-19.13-15.47,5.89-5.77,12.22-11.15,18.85-16.02M275.31,134.92c-7.26,5.28-14.08,11.11-20.42,17.4,7.14,4.76,13.83,10.13,20.01,16.05,11.47,10.93,21.17,23.69,28.64,37.81,4.83,9.1,8.75,18.77,11.59,28.89,3.61,12.79,5.55,26.28,5.55,40.23s-1.96,27.68-5.64,40.58c-2.81,9.83-6.59,19.23-11.28,28.11-7.67,14.61-17.73,27.78-29.65,38.98-5.92,5.59-12.29,10.67-19.06,15.2-23.5,15.76-51.77,24.94-82.19,24.94-13.79,0-27.15-1.88-39.81-5.43,2.75,9.8,6.51,19.18,11.15,28.03,9.45,1.59,19.15,2.42,29.05,2.42,38.03,0,73.18-12.25,101.76-33.01,6.96-5.06,13.52-10.62,19.64-16.63,17.97-17.65,32.11-39.19,41.04-63.27,3.66-9.84,6.46-20.12,8.29-30.72,1.65-9.62,2.52-19.51,2.52-29.6s-.79-19.08-2.29-28.27c-1.8-10.99-4.65-21.63-8.42-31.82-8.8-23.82-22.7-45.17-40.37-62.75-6.24-6.2-12.96-11.95-20.09-17.15h0Z"/>
      </g>
      <g>
        <path class="cls-15" d="M275.31,134.92c-7.26,5.28-14.08,11.11-20.42,17.4-23.46-15.7-51.68-24.85-82.03-24.85-13.64,0-26.85,1.84-39.38,5.31-10.2,2.81-19.96,6.68-29.14,11.5-47.14,24.7-79.31,74.1-79.31,131.02s32.07,106.17,79.1,130.88c1.8,10.68,4.6,21.04,8.27,30.97C46.74,412.52,0,349.18,0,274.9S46.98,136.97,112.9,112.47c10.33-3.85,21.13-6.73,32.29-8.54,9.13-1.49,18.5-2.27,28.05-2.27,38.17,0,73.45,12.34,102.07,33.25Z"/>
        <path class="cls-11" d="M173.24,102.66c36.32,0,71,11.15,100.37,32.26-6.63,4.9-12.96,10.32-18.85,16.11-24.3-16.07-52.6-24.56-81.91-24.56-13.48,0-26.82,1.8-39.64,5.34-10.16,2.8-20.03,6.69-29.34,11.58-49.25,25.81-79.84,76.35-79.84,131.9s30.33,105.66,79.19,131.54c1.67,9.69,4.18,19.3,7.49,28.6-31.61-12.31-58.66-33.5-78.32-61.37-20.54-29.11-31.4-63.41-31.4-99.16s10.91-70.21,31.55-99.37c20.19-28.52,48.09-50.01,80.7-62.13,10.38-3.86,21.18-6.72,32.1-8.49,9.17-1.49,18.55-2.25,27.89-2.25M173.24,101.66c-9.55,0-18.92.78-28.05,2.27-11.16,1.8-21.96,4.69-32.29,8.54C46.98,136.97,0,200.46,0,274.9s46.74,137.62,112.4,162.25c-3.68-9.93-6.47-20.29-8.27-30.97-47.03-24.71-79.1-74.05-79.1-130.88s32.17-106.31,79.31-131.02c9.18-4.82,18.94-8.69,29.14-11.5,12.53-3.46,25.74-5.31,39.38-5.31,30.35,0,58.57,9.14,82.03,24.85,6.34-6.3,13.16-12.12,20.42-17.4-28.63-20.91-63.91-33.25-102.07-33.25h0Z"/>
      </g>
      <g>
        <path class="cls-7" d="M274.97,383.84l-19.76,14.49c-.05-.05-.11-.11-.16-.16-17.02-17.32-30.92-38.71-39.9-62.38-3.86-10.13-6.81-20.67-8.72-31.5-1.7-9.52-2.6-19.27-2.6-29.14s.79-19.13,2.31-28.35c1.83-11.13,4.73-21.91,8.58-32.22,8.81-23.62,22.65-44.8,40.18-62.26,6.34-6.3,13.16-12.12,20.42-17.4,28.57-20.75,63.72-33,101.76-33,9.92,0,19.64.83,29.1,2.42,4.9,9.21,8.84,18.98,11.71,29.22-13.08-3.81-26.9-5.84-41.2-5.84-30.04,0-57.97,8.96-81.28,24.35-7.31,4.82-14.18,10.28-20.5,16.3-11.53,10.92-21.28,23.7-28.8,37.85-4.9,9.18-8.84,18.94-11.71,29.17-3.61,12.77-5.53,26.23-5.53,40.15s2.04,27.19,5.77,40.15c2.81,9.83,6.6,19.33,11.21,28.31,7.48,14.64,17.14,27.9,28.27,38.97.26.29.57.58.86.87Z"/>
        <path class="cls-4" d="M377.07,102.91c9.54,0,19.11.78,28.45,2.33,4.51,8.55,8.18,17.57,10.91,26.86-12.86-3.57-26.22-5.38-39.74-5.38-29.24,0-57.53,8.48-81.83,24.51-7.35,4.85-14.29,10.37-20.64,16.41-11.68,11.06-21.43,23.88-28.99,38.1-4.96,9.3-8.93,19.18-11.79,29.37-3.7,13.07-5.57,26.67-5.57,40.43s1.95,27.03,5.81,40.43c2.78,9.73,6.58,19.32,11.28,28.49,7.54,14.75,17.11,27.94,28.44,39.21.02.02.03.04.05.06l-18.13,13.29c-16.99-17.43-30.55-38.7-39.23-61.58-3.89-10.2-6.81-20.74-8.67-31.32-1.71-9.59-2.58-19.34-2.58-28.97s.77-18.93,2.29-28.19c1.79-10.89,4.66-21.67,8.53-32.04,8.59-23.03,22.41-44.44,39.95-61.9,6.3-6.27,13.14-12.09,20.3-17.3,29.56-21.46,64.54-32.81,101.17-32.81M377.07,101.91c-38.03,0-73.18,12.25-101.76,33-7.26,5.28-14.08,11.11-20.42,17.4-17.53,17.46-31.37,38.64-40.18,62.26-3.85,10.32-6.75,21.09-8.58,32.22-1.52,9.22-2.31,18.69-2.31,28.35s.9,19.62,2.6,29.14c1.91,10.83,4.86,21.37,8.72,31.5,8.98,23.67,22.88,45.06,39.9,62.38.05.05.11.11.16.16l19.76-14.49c-.29-.29-.59-.58-.86-.87-11.13-11.07-20.79-24.33-28.27-38.97-4.61-8.98-8.41-18.48-11.21-28.31-3.73-12.96-5.77-26.48-5.77-40.15s1.92-27.39,5.53-40.15c2.87-10.22,6.81-19.98,11.71-29.17,7.52-14.15,17.27-26.93,28.8-37.85,6.32-6.02,13.19-11.47,20.5-16.3,23.32-15.39,51.25-24.35,81.28-24.35,14.29,0,28.11,2.03,41.2,5.84-2.87-10.24-6.81-20.01-11.71-29.22-9.46-1.59-19.18-2.42-29.1-2.42h0Z"/>
      </g>
      <g>
        <path class="cls-5" d="M550.31,275.15c0,74.51-47.03,138.04-113.03,162.49-9.91,3.68-20.26,6.47-30.93,8.29-9.51,1.62-19.3,2.46-29.27,2.46-38.17,0-73.46-12.34-102.07-33.26-.57-.41-1.13-.83-1.7-1.25l19.87-16.35-.04-.05c.5.34,1,.69,1.52,1.03,23.46,15.69,51.69,24.86,82.05,24.86,14.2,0,27.93-2,40.92-5.76,9.83-2.81,19.23-6.63,28.11-11.33,46.86-24.79,78.78-74.04,78.78-130.74s-31.74-105.64-78.36-130.5c-1.83-11.15-4.72-21.93-8.56-32.26,65.84,24.54,112.73,87.99,112.73,162.38Z"/>
        <path class="cls-10" d="M439.26,114.48c31.69,12.27,58.82,33.45,78.55,61.36,20.6,29.15,31.49,63.49,31.49,99.31s-10.92,70.27-31.58,99.44c-20.21,28.54-48.15,50.02-80.8,62.11-9.92,3.68-20.26,6.45-30.75,8.24-9.54,1.63-19.33,2.45-29.1,2.45-36.8,0-71.89-11.44-101.49-33.08-.22-.16-.44-.32-.66-.48l18.32-15.07c.28.19.56.38.85.57,24.48,16.37,53.05,25.03,82.6,25.03,14.03,0,27.89-1.95,41.19-5.8,9.75-2.78,19.27-6.62,28.31-11.41,48.92-25.88,79.31-76.32,79.31-131.62s-30.05-105.14-78.45-131.15c-1.7-10.18-4.32-20.23-7.78-29.9M437.57,112.77c3.85,10.33,6.73,21.12,8.56,32.26,46.62,24.86,78.36,73.99,78.36,130.5s-31.92,105.95-78.78,130.74c-8.88,4.7-18.29,8.52-28.11,11.33-12.99,3.75-26.72,5.76-40.92,5.76-30.35,0-58.58-9.17-82.05-24.86-.51-.34-1.01-.69-1.52-1.03l.04.05-19.87,16.35c.57.42,1.13.84,1.7,1.25,28.61,20.92,63.91,33.26,102.07,33.26,9.97,0,19.76-.84,29.27-2.46,10.67-1.82,21.03-4.61,30.93-8.29,66-24.45,113.03-87.98,113.03-162.49s-46.89-137.84-112.73-162.38h0Z"/>
      </g>
    </g>
  </g>
</svg>