<?xml version="1.0" encoding="UTF-8"?>
<svg id="Ebene_2" data-name="Ebene 2" xmlns="http://www.w3.org/2000/svg" xmlns:xlink="http://www.w3.org/1999/xlink" viewBox="0 0 295.32 496.18">
  <defs>
    <style>
      .cls-1 {
        fill: none;
      }

      .cls-1, .cls-2 {
        stroke-width: 2px;
      }

      .cls-1, .cls-2, .cls-3 {
        stroke: #000;
        stroke-miterlimit: 10;
      }

      .cls-4 {
        fill: url(#Unbenannter_Verlauf_6);
      }

      .cls-4, .cls-5, .cls-6 {
        stroke-width: 0px;
      }

      .cls-5 {
        fill: #000;
      }

      .cls-2, .cls-3 {
        fill: #fff;
      }

      .cls-3 {
        stroke-width: 1.5px;
      }

      .cls-6 {
        fill: url(#Unbenannter_Verlauf_6-2);
      }
    </style>
    <radialGradient id="Unbenannter_Verlauf_6" data-name="Unbenannter Verlauf 6" cx="199.31" cy="305.76" fx="199.31" fy="305.76" r="48.56" gradientUnits="userSpaceOnUse">
      <stop offset="0" stop-color="#b61100"/>
      <stop offset=".44" stop-color="#b41000"/>
      <stop offset=".6" stop-color="#ad0f00"/>
      <stop offset=".71" stop-color="#a10d00"/>
      <stop offset=".8" stop-color="#900b00"/>
      <stop offset=".88" stop-color="#7a0700"/>
      <stop offset=".95" stop-color="#600300"/>
      <stop offset="1" stop-color="#460000"/>
    </radialGradient>
    <radialGradient id="Unbenannter_Verlauf_6-2" data-name="Unbenannter Verlauf 6" cx="194.58" cy="455.27" fx="194.58" fy="455.27" r="29.46" xlink:href="#Unbenannter_Verlauf_6"/>
  </defs>
  <g id="export_version">
    <g id="koifish1">
      <g>
        <path class="cls-2" d="M62.63,60.78s11.33,7.73,22.37,15.43c13.08,9.13,23.75,21.28,31.13,35.42l12.91,24.74c12,22.36,18.46,47.27,18.84,72.65h0c.21,14.01-1.33,27.99-4.59,41.61l-14.7,61.47s-35.65,81.99,42.78,171.11c0,0,5.35-5.35,33.86-10.69,0,0,57.04-51.69,3.56-185.37l-18.88-59.79c-1.67-5.28-2.81-10.71-3.43-16.21h0c-2.92-26.27-.22-52.85,7.91-78h0c4.8-14.83,12.39-28.6,22.37-40.58l40.15-46.04-12.85,5.88c-30.31,16.1-56.9,38.39-78.05,65.42h0s-27.8-25.15-27.8-25.15c-6.41-5.8-13.19-11.18-20.3-16.1h0c-8.23-5.7-17.61-9.5-27.49-11.15l-27.79-4.63S35.89,48.31.24,57.22"/>
        <path class="cls-1" d="M160.66,495.68s19.61-33.86,60.6-17.82"/>
        <path class="cls-1" d="M253.34,48.31S288.99,28.7,294.33.18"/>
        <path class="cls-3" d="M231.95,378.05s14.26-26.74,55.25-26.74c0,0,1.78,81.99-57.04,65.95"/>
        <path class="cls-3" d="M125.01,397.65s-11.58-16.58-30.67-8.1c-5.58,2.47-11.88,3.06-17.79,1.55-2.94-.75-5.32-1.96-5.7-3.92,0,0,11.39,76.19,63.08,37.09"/>
        <path class="cls-3" d="M142.83,249.72s-35.65-10.69-23.17-53.47c0,0,17.1,7.17,26.37,40.12"/>
        <path class="cls-3" d="M188.15,220.94s1.03-24.69,25.98-31.82c0,0,7.13,32.08-19.61,51.69"/>
      </g>
      <path class="cls-5" d="M121.44,349.53l20.58,14.57c2.91,2.16,5.97,4.11,9.17,5.83l11.48,6.18c4.35,2.34,7.36,6.57,8.16,11.44h0c.34,2.08.37,4.2.09,6.28l-1.22,9.09c-1.27,9.43-.36,19.03,2.65,28.06h0c.52,1.55.93,3.12,1.25,4.72l.48,2.4c.55,2.74.82,5.52.82,8.31h0c0,3.69-.75,7.33-2.19,10.7-.83,1.94-2.83,3.13-4.94,3.08l-1.24-.03c-4.98-.11-9.36-3.34-10.9-8.07s-2.5-9.7-3.81-8.51l-5.54,5.04s-31.98-54.54-24.85-99.1Z"/>
      <path class="cls-5" d="M186.56,386.01h0c1.58-1.58,3.96-2.06,6.03-1.22h0c.82.34,1.43,1.05,1.63,1.92l1.14,5.01c.62,2.75.76,5.58.41,8.37l-.62,4.93c-.41,3.31-1.92,6.39-4.28,8.74h0c-1.12,1.12-1.91,2.52-2.29,4.05l-1.2,4.79-.84,2.6c-.46,1.42-2.18,1.95-3.36,1.04l-1.57-1.21c-1.93-1.49-2.84-3.94-2.36-6.33l1-5.02,3.56-8.91h0c1.18-4.74,1.78-9.6,1.78-14.48v-2c0-.86.34-1.69.95-2.3Z"/>
      <path class="cls-5" d="M147.57,201.4l10.19,11.02c4.24,4.59,7.26,10.17,8.78,16.24h0c.79,3.16.06,6.51-1.98,9.05l-5.25,6.56c-3.82,4.77-6.61,10.27-8.22,16.16l-2.13,7.82c-.52,1.9-.97,3.82-1.36,5.76l-1.67,8.37c-.87,4.36-2.09,8.64-3.66,12.8l-3,8-.63,1.25c-1.77,3.53-5.54,5.59-9.47,5.15h0s25.35-97.03,18.39-108.19Z"/>
      <g>
        <path class="cls-4" d="M229.5,367.44c-1.04-.46-1.95-1.03-2.69-1.7-4.97-4.45-11.39-6.91-18.07-6.91h-2.97c-2.55,0-5.09-.83-7.14-2.35l-2.68-1.97c-2.27-1.67-3.8-4.12-4.32-6.89l-1.77-9.52c-1.28-6.87-5.37-13.02-11.21-16.85-2.2-1.44-4.08-3.4-5.43-5.65l-1.69-2.81c-2.07-3.45-2.85-7.53-2.18-11.5.47-2.77,1.37-5.43,2.68-7.91l7.68-14.55c5.69-10.78,9.53-22.35,11.41-34.39.04-.23.23-.35.4-.35.08,0,.16.03.23.08l3.25,2.31,26.68,80.94,7.83,40.03Z"/>
        <path class="cls-5" d="M191.58,244.65l2.99,2.12,26.61,80.73,7.64,39.04c-.63-.35-1.19-.74-1.68-1.18-5.06-4.54-11.6-7.03-18.4-7.03h-2.97c-2.48,0-4.85-.78-6.85-2.25l-2.68-1.97c-2.17-1.6-3.63-3.93-4.12-6.58l-1.77-9.52c-1.31-7.01-5.47-13.27-11.43-17.18-2.14-1.4-3.96-3.3-5.28-5.49l-1.69-2.81c-2.01-3.35-2.76-7.31-2.11-11.16.46-2.71,1.34-5.32,2.62-7.76l7.68-14.55c5.69-10.78,9.54-22.36,11.43-34.4M191.51,243.58c-.42,0-.82.3-.9.77-1.87,11.96-5.7,23.53-11.35,34.23l-7.68,14.55c-1.33,2.52-2.25,5.24-2.73,8.06-.69,4.09.11,8.29,2.24,11.84l1.69,2.81c1.4,2.33,3.31,4.32,5.58,5.81h0c5.76,3.78,9.73,9.75,11,16.53l1.77,9.52c.54,2.89,2.15,5.46,4.51,7.2l2.68,1.97c2.16,1.59,4.76,2.45,7.44,2.45h2.97c6.56,0,12.87,2.43,17.73,6.78,1.07.96,2.35,1.65,3.69,2.13l-8.02-40.99-26.74-81.1-3.38-2.4c-.16-.12-.35-.17-.52-.17h0Z"/>
      </g>
      <path class="cls-5" d="M155.37,178.93l-.66.88c-1.81,2.41-2.04,5.66-.59,8.3l.57,1.05c1.58,2.89,3.65,5.48,6.12,7.65l1.62,1.22,1.39.69c1.29.65,2.85.37,3.84-.69l.42-.45c.77-.82.98-2,.56-3.04l-2.71-6.61c-1.13-2.75-2.8-5.25-4.9-7.36l-1.92-1.92c-1.07-1.07-2.84-.94-3.74.27Z"/>
      <g>
        <path class="cls-6" d="M162.3,470.03l22.23-10.5c6.81-2.93,12.94-7.09,18.2-12.35l4.42-4.42c3.65-3.65,7.76-6.83,12.21-9.44l7.5-4.4c-1.03,5.32-6.49,29.4-22.74,43.28-2.26.31-25,3.5-33.54,9.41l-8.27-11.58Z"/>
        <path class="cls-5" d="M226.15,429.93c-1.46,6.89-7.12,28.81-22.24,41.8-2.92.4-24.44,3.51-33.2,9.2l-7.64-10.7,21.66-10.23c6.89-2.97,13.07-7.16,18.37-12.46l4.42-4.42c3.62-3.62,7.7-6.77,12.11-9.36l6.53-3.83M227.54,427.95l-8.43,4.95c-4.49,2.64-8.63,5.83-12.31,9.52l-4.42,4.42c-5.19,5.19-11.32,9.35-18.06,12.25l-22.77,10.75,8.91,12.48c8.42-6.27,33.87-9.63,33.87-9.63,18.72-15.87,23.22-44.73,23.22-44.73h0Z"/>
      </g>
    </g>
  </g>
</svg>