<?xml version="1.0" encoding="UTF-8"?>
<svg id="Ebene_2" data-name="Ebene 2" xmlns="http://www.w3.org/2000/svg" viewBox="0 0 1922.21 493.43">
  <defs>
    <style>
      .cls-1 {
        fill: #000;
      }

      .cls-1, .cls-2 {
        stroke: #000;
        stroke-miterlimit: 10;
      }

      .cls-2 {
        fill: #fff;
      }
    </style>
  </defs>
  <g id="mountain">
    <g id="mountain-2" data-name="mountain">
      <path class="cls-1" d="M428.28,71.58L1.22,492.93h940.18L514.33,71.58c-23.86-23.54-62.2-23.54-86.05,0Z"/>
      <path class="cls-1" d="M1463.22,20.3l-375.87,472.63h833.83L1545.3,20.3c-21-26.4-61.09-26.4-82.09,0Z"/>
      <path class="cls-1" d="M832.47,96.44l-427.44,396.27h1185.89l-427.44-396.27c-93.36-86.55-237.65-86.55-331.01,0Z"/>
      <path class="cls-2" d="M721.51,200.65l104.24-101.99c97.15-90.07,247.29-90.07,344.44,0l150.32,141.99-205.31-62.29c-44.68-13.26-92.41-9.86-134.94,9.6l-52.06,23.82c-42.03,19.24-84.74-25.54-65.96-69.14h0c4.07-9.44-5.58-18.94-14.41-14.19l-126.33,72.2Z"/>
      <path class="cls-2" d="M253.02,244.49l175.32-172.97c23.84-23.52,62.14-23.57,86.03-.11l106.27,104.33c70.12,68.84,42.15,94.64-62.17,57.32l-47.97-17.16c-19.94-7.13-52.01-6.33-71.26,1.78l-22.19,9.35c-22.6,9.52-34.65,2.17-26.79-16.34l12.7-29.89c8.81-20.74-2.4-26.45-24.92-12.7l-125.01,76.37Z"/>
      <path class="cls-2" d="M1304.51,219.65l157.61-199.06c21.64-26.65,62.38-26.45,83.75.42l252.83,317.91-150.33-83.16c-56.81-31.43-121.96-46.29-187.46-42.76h0c-27.1,1.46-45.58-25.85-33.13-48.94h0c7.44-13.81-9.65-27.81-22.74-18.62l-100.52,74.22"/>
    </g>
  </g>
</svg>