<?xml version="1.0" encoding="UTF-8"?>
<svg id="Ebene_2" data-name="Ebene 2" xmlns="http://www.w3.org/2000/svg" viewBox="0 0 197.4 198.53">
  <defs>
    <style>
      .cls-1, .cls-2 {
        fill: #000;
      }

      .cls-1, .cls-3 {
        stroke-width: 0px;
      }

      .cls-2, .cls-4 {
        stroke: #000;
        stroke-miterlimit: 10;
        stroke-width: .75px;
      }

      .cls-3, .cls-4 {
        fill: #fff;
      }
    </style>
  </defs>
  <g id="Ebene_7" data-name="Ebene 7">
    <g id="eye_open">
      <g>
        <path class="cls-1" d="M197.4,99.24c0,54.81-44.19,99.24-98.7,99.24-.22,0-.44,0-.65-.01-1.71,0,3.98.12,2.29.01-25.18-2.09-52.35-23.49-52.35-49.35,0-27.25,21.98-49.35,49.08-49.35h.55v-.55c27.1,0,49.08-22.1,49.08-49.35S125.26,1.09,98.15,1.09c-.43,0-1.77-.01-2.18,0l.36-1.06c.79-.02,1.58-.03,2.37-.03,54.51,0,98.7,44.44,98.7,99.24Z"/>
        <path class="cls-3" d="M146.69,50.71c0,27.1-21.98,49.08-49.08,49.08v.55h-.55c-27.1,0-49.08,21.98-49.08,49.08s27.17,46.99,52.35,49.08C48.5,195.52,0,152.37,0,99.79S42.92,2.38,96.33,1.12l4-.03c.41-.01.67,0,1.09,0,27.1,0,45.26,22.52,45.26,49.62Z"/>
        <circle class="cls-2" cx="99.79" cy="49.62" r="8.72"/>
        <circle class="cls-4" cx="95.43" cy="153.23" r="8.72"/>
      </g>
    </g>
  </g>
</svg>